<?xml version="1.0" standalone="no"?>
<!DOCTYPE svg PUBLIC "-//W3C//DTD SVG 1.1//EN" "http://www.w3.org/Graphics/SVG/1.1/DTD/svg11.dtd" >
<svg xmlns="http://www.w3.org/2000/svg">
<metadata>
This is a custom SVG font generated by IcoMoon.
<iconset grid="16" name="bui-icons" id="bui-icons"></iconset><author name="Sarath Jayaprakash"></author><license name="Copyright © 1999-2013 Blackmonk Inc."></license>
</metadata>
<defs>
<font id="bui-icons" horiz-adv-x="512" >
<font-face units-per-em="512" ascent="480" descent="-32" />
<missing-glyph horiz-adv-x="512" />
<glyph class="hidden" unicode="&#xf000;" d="M0,480L 512 -32L0 -32 z" horiz-adv-x="0" />
<glyph unicode="&#xe000;" d="M 250.678,145.314c 2.916-3.669, 7.751-3.669, 10.667,0l 160,200C 424.261,348.984, 422.846,351.984, 418.138,351.984
	L 93.886,351.984 C 89.178,351.984, 87.763,348.984, 90.678,345.314L 250.678,145.314z" data-tags="cRt-b-12" />
<glyph unicode="&#xe001;" d="M 507.726,245.333L 277.333,245.333 L 277.333,475.726 C 277.333,478.094, 275.428,480, 273.060,480l-34.126,0 C 236.572,480, 234.667,478.094, 234.667,475.726L 234.667,245.333 
	L 4.274,245.333 C 1.906,245.333,0,243.428,0,241.060l0-34.126 C0,204.572, 1.906,202.667, 4.274,202.667L 234.667,202.667 l0-230.393 
	C 234.667-30.094, 236.572-32, 238.94-32l 34.126,0 C 275.428-32, 277.333-30.094, 277.333-27.726L 277.333,202.667 l 230.393,0 
	C 510.094,202.667, 512,204.572, 512,206.94l0,34.126 C 512,243.428, 510.094,245.333, 507.726,245.333z" data-tags="pLs-24" />
<glyph unicode="&#xe002;" d="M 490.667,206.94C 490.667,204.572, 488.761,202.667, 486.393,202.667L 25.607,202.667 C 23.239,202.667, 21.333,204.572, 21.333,206.94l0,34.126 
		C 21.333,243.428, 23.239,245.333, 25.607,245.333l 460.793,0 C 488.761,245.333, 490.667,243.428, 490.667,241.060L 490.667,206.94 z" data-tags="mNs-24" />
<glyph unicode="&#xe003;" d="M 286.165,224l 177.998,177.998c 1.664,1.664, 1.664,4.373,0,6.044l-24.128,24.128
	c-1.664,1.664-4.373,1.664-6.044,0L 256,254.165l-177.998,177.998
	c-1.664,1.664-4.373,1.664-6.044,0L 47.836,408.043c-1.664-1.664-1.664-4.373,0-6.044
	L 225.835,224l-177.998-177.998c-1.664-1.664-1.664-4.373,0-6.044l 24.128-24.128
	c 1.664-1.664, 4.373-1.664, 6.044,0L 256,193.835l 177.998-177.998
	c 1.664-1.664, 4.373-1.664, 6.044,0l 24.128,24.128c 1.664,1.664, 1.664,4.373,0,6.044
	L 286.165,224z" data-tags="eMv-24" />
<glyph unicode="&#xe004;" d="M 476.295,101.582L 255.979,301.867L 35.669,101.582L 6.962,133.148L 255.979,359.531L 505.003,133.148 	z" data-tags="aNg-tT-24" />
<glyph unicode="&#xe005;" d="M 189.326-21.867c-0.761-0.832-1.835-1.337-2.958-1.387
		c-1.138-0.064-2.24,0.341-3.072,1.102l-25.252,22.962
		c-1.742,1.593-1.877,4.295-0.292,6.030L 355.164,224L 157.753,441.159
		C 156.167,442.894, 156.302,445.596, 158.044,447.189l 25.252,22.962
		c 0.832,0.761, 1.934,1.166, 3.072,1.102c 1.124-0.050, 2.197-0.555, 2.958-1.387
		L 412.836,224L 189.326-21.867z" data-tags="aNg-rT-24" />
<glyph unicode="&#xe006;" d="M 307.364-22.123c-0.832-0.761-1.934-1.166-3.072-1.102
		c-1.124,0.050-2.197,0.555-2.958,1.387L 80.427,221.148
		c-1.479,1.636-1.479,4.117,0,5.753L 301.333,469.888
		c 0.761,0.832, 1.835,1.337, 2.958,1.387c 1.138,0.064, 2.24-0.341, 3.072-1.102
		l 25.252-22.962c 1.742-1.593, 1.877-4.295, 0.292-6.030L 135.488,224.021l 197.419-217.159
		c 1.586-1.742, 1.451-4.437-0.292-6.030L 307.364-22.123z" data-tags="aNg-lT-24" />
<glyph unicode="&#xe007;" d="M 258.873,48.448c-1.628-1.479-4.124-1.479-5.753,0L 10.148,269.355
		C 9.294,270.116, 8.789,271.189, 8.747,272.313c-0.064,1.138, 0.334,2.24, 1.102,3.072
		l 22.962,25.252c 1.586,1.742, 4.295,1.877, 6.023,0.292L 256,103.509L 473.166,300.928
		c 1.728,1.586, 4.437,1.451, 6.023-0.292l 22.962-25.252
		c 0.768-0.832, 1.166-1.934, 1.102-3.072c-0.043-1.124-0.54-2.197-1.394-2.958
		L 258.873,48.448z" data-tags="aNg-bT-24" />
<glyph unicode="&#xe008;" d="M 228.026,442.989c 4.378,11.661, 15.526,15.987, 28,15.987
	c 12.422,0, 23.622-2.598, 27.974-14.285L 330.15,326.4l 144.55,0 c 13.050,0, 24.627-15.334, 28.55-27.802
	c 3.853-12.474-0.774-29.453-11.501-36.902L 376,179.578l 44.902-137.19
	c 4.051-12.352-0.301-26.31-10.848-33.965c-10.502-7.622-24.749-7.814-35.226-0.115
	l-118.803,87.174l-118.925-85.99c-10.528-7.603-24.749-7.578-35.174,0.115
	c-10.477,7.674-14.778,21.21-10.65,33.51l 44.774,134.362L 20.026,258.298
	c-10.675,7.462-15.328,27.872-11.424,40.314C 12.525,311.066, 24.051,326.4, 37.101,326.4l 144.774,0 
	L 228.026,442.989z" data-tags="sTr-20" />
<glyph unicode="&#xe009;" d="M 488.928,275.334c 2.003,1.69, 3.149,4.198, 3.174,6.835
	c 0.051,2.611-1.126,5.126-3.053,6.874l-187.648,163.315
	c-2.675,2.31-8.851,2.874-12.051,1.402C 286.099,452.314, 281.6,449.088, 281.6,445.574l0-71.149 
	C 179.2,369.126, 10.976,325.414, 10.976-15.763c0,0, 65.824,215.699, 270.624,211.789l0-72.090 
	c0-3.514, 4.448-6.714, 7.648-8.186c 3.2-1.485, 8.128-0.973, 10.822,1.299L 488.928,275.334
	z" data-tags="rPl-rT-20" />
<glyph unicode="&#xe00a;" d="M 14.15,275.334c-2.003,1.69-3.149,4.198-3.174,6.835
	C 10.925,284.787, 12.102,287.302, 14.022,289.050l 187.648,163.315
	c 2.675,2.31, 13.312,2.874, 16.512,1.402C 221.44,452.314, 230.4,449.088, 230.4,445.574l0-71.149 
	c 102.4-5.299, 270.624-49.011, 270.624-390.189c0,0-65.824,215.699-270.624,211.789l0-72.090 
	c0-3.514-8.915-6.714-12.115-8.186c-3.2-1.485-10.362-0.973-13.062,1.299L 14.15,275.334
	z" data-tags="rPl-lT-20" />
<glyph unicode="&#xe00b;" d="M 375.827,435.853C 279.398,435.853, 256,345.99, 256,345.99
	S 232.602,435.853, 136.173,435.853c-66.15,0-119.802-53.651-119.802-119.814
	c0-180.973, 216.352-242.515, 239.622-329.485l0,0l0,0l0,0c 18.253,88.928, 239.622,148.55, 239.622,329.485
	C 495.622,382.202, 441.978,435.853, 375.827,435.853z" data-tags="hRt-20" />
<glyph unicode="&#xe00c;" d="M 256,234.426c 76.627,40.25, 180.077,90.624, 228,132.301
		C 477.651,387.776, 458.323,403.2, 435.2,403.2L 76.8,403.2 C 53.677,403.2, 34.349,387.776, 28,366.726
		C 75.923,325.050, 179.373,274.675, 256,234.426zM 270.502,169.888C 265.952,167.565, 260.973,166.4, 256,166.4
		s-9.952,1.165-14.502,3.488C 203.802,189.075, 94.822,233.875, 25.6,286.515L 25.6,70.4 c0-28.275, 22.925-51.2, 51.2-51.2
		l 358.4,0 c 28.275,0, 51.2,22.925, 51.2,51.2L 486.4,286.515 C 417.178,233.875, 308.198,189.075, 270.502,169.888z" data-tags="eNv-20" />
<glyph unicode="&#xe00d;" d="M 401.626,368M 401.626,368M 79.962,455.437L 11.488,389.99l 146.835-153.613
		c 3.552-4.013, 6.547-8.403, 9.427-12.851c 9.978,32.352, 27.187,62.214, 50.4,87.302
		L 79.962,455.437zM 499.2,480l-237.901,0 c-5.178,0-9.837-3.11-11.827-7.898
		c-1.978-4.787-0.89-10.285, 2.778-13.952l 77.574-77.574L 247.674,304.525
		c-41.101-38.048-64.602-92.013-64.448-148.051l 0.538-188.614l 94.726,0.275l-0.538,188.602
		c-0.077,29.626, 12.339,58.163, 34.074,78.272l 84.838,78.528l 93.286-93.286
		c 3.661-3.661, 9.165-4.749, 13.952-2.778C 508.877,219.462, 512,224.128, 512,229.299L 512,467.2 
		C 512,474.272, 506.272,480, 499.2,480z" data-tags="dRt-20" />
<glyph unicode="&#xe00e;" d="M 451.872,63.344l-99.528,99.528C 375.376,193.28, 389.216,231, 389.216,272
		c0,99.936-81.28,181.216-181.216,181.216S 26.784,371.936, 26.784,272S 108.064,90.784, 208,90.784
		c 35.84,0, 69.184,10.592, 97.344,28.624l 101.28-101.312L 451.872,63.344z M 74.784,272
		c0,73.472, 59.752,133.216, 133.216,133.216S 341.216,345.472, 341.216,272S 281.472,138.784, 208,138.784
		S 74.784,198.528, 74.784,272zM 128,288L 288,288L 288,256L 128,256z" data-tags="zOm-oT-16" />
<glyph unicode="&#xe00f;" d="M 451.872,63.344l-99.528,99.528C 375.376,193.28, 389.216,231, 389.216,272
		c0,99.936-81.28,181.216-181.216,181.216S 26.784,371.936, 26.784,272S 108.064,90.784, 208,90.784
		c 35.84,0, 69.184,10.592, 97.344,28.624l 101.28-101.312L 451.872,63.344z M 74.784,272
		c0,73.472, 59.752,133.216, 133.216,133.216S 341.216,345.472, 341.216,272S 281.472,138.784, 208,138.784
		S 74.784,198.528, 74.784,272zM 224,352L 192,352L 192,288L 128,288L 128,256L 192,256L 192,192L 224,192L 224,256L 288,256L 288,288L 224,288 	z" data-tags="zOm-iN-16" />
<glyph unicode="&#xe010;" d="M 501.936,243.84C 497.504,249.512, 391.936,382.608, 256,382.608S 14.504,249.512, 10.064,243.84
		l-12.28-15.72l 8.688-17.936C 9.472,204, 81.84,58.752, 256,58.752
		c 170.72,0, 246.128,144.752, 249.248,150.904l 9.216,18.16L 501.936,243.84z M 256,122.752
		c-102.44,0-159.44,65.424-181.376,97.784c 18.44,19.736, 53.504,53.216, 96.816,75.504
		C 166.064,284.248, 162.872,271.264, 162.872,257.488c0-51.44, 41.688-93.144, 93.128-93.144
		s 93.128,41.704, 93.128,93.144c0,13.8-3.184,26.784-8.56,38.56
		c 43.064-22.16, 77.968-55.408, 96.504-75.168C 414.216,188.408, 355.752,122.752, 256,122.752z" data-tags="vEw-16" />
<glyph unicode="&#xe011;" d="M 420.688,321.936L 267.312,475.312c-6.248,6.248-16.376,6.248-22.624,0L 91.312,321.936
		C 86.736,317.376, 85.376,307.16, 87.84,301.184C 90.328,295.216, 96.16,288, 102.624,288L 192,288 l0-153.376 
		C 192,116.936, 206.328,96, 224,96l 64,0 c 17.672,0, 32,20.936, 32,38.624L 320,288 l 89.376,0 
		c 6.472,0, 12.296,7.216, 14.784,13.184C 426.624,307.16, 425.264,317.376, 420.688,321.936zM 160,64l0,60.312 L 32,124.312 c-17.672,0-32-14.312-32-32L0,0 c0-17.688, 14.328-32, 32-32l 448,0 c 17.672,0, 32,14.312, 32,32
		l0,92.312 c0,17.688-14.328,32-32,32l-128,0 L 352,64 L 160,64 z M 448,32l-64,0 l0,32 l 64,0 L 448,32 z" data-tags="uP-lD-16" />
<glyph unicode="&#xe012;" d="M 256,475.968C 116.84,475.968, 4.032,363.16, 4.032,224c0-139.184, 112.816-251.968, 251.968-251.968
		S 507.968,84.816, 507.968,224C 507.968,363.16, 395.16,475.968, 256,475.968z M 413.816,226.344
		c-7.096-3.816-16.248-5.656-27.592-5.656c-5.16-23.064-14.752-43.904-28.784-62.128
		c-13.968-18.408-30.624-33.528-49.904-45.472s-40.408-20.312-63.592-24.936
		c-13.032-2.84-26.064-4.184-39.16-4.184c-9.936,0-19.84,0.784-29.72,2.472
		C 152.184,90, 130.248,98.344, 109,111.408c-21.216,13.032-39.784,31.72-55.688,55.936
		c 8.968-9.528, 19.44-16.968, 31.44-22.096c 11.936-5.16, 24.344-7.72, 37.216-7.72
		s 25.624,2.72, 37.968,8.28c 12.408,5.56, 23.592,14.128, 33.504,25.872
		C 191.56,171.216, 189.688,171.032, 187.784,171.032c-3.624,0-6.936,0.784-9.904,2.344
		c-4.752,2.184-8,5.248-9.72,9.032c-1.84,3.872-1.84,8.096,0,12.816
		c 1.72,4.528, 6.376,8.592, 13.784,12.16C 179.344,207.096, 176.872,206.904, 174.592,206.904
		c-3.656,0-7.032,0.312-10.096,1.032C 159.248,209.128, 154.752,211.032, 150.936,213.72
		C 147,216.44, 143.816,219.44, 141.312,222.624C 138.784,225.84, 136.656,229.248, 134.936,232.816
		c 3.128,3.44, 6.688,5.968, 10.656,7.752c 3.872,1.752, 9.096,2.872, 15.528,3.248
		C 146.688,247.56, 136.376,253.128, 130.248,260.408c-6.128,7.408-10,15.752-11.56,25.344
		c 4.248,0.816, 8.504,1.72, 12.872,2.72C 135.816,289.496, 139.28,289.624, 141.752,288.904
		C 129.528,296.216, 120.968,304.816, 116.096,314.56C 111.84,323.184, 109.688,331.28, 109.688,338.84
		c0,0.936, 0.128,1.968, 0.28,3.096C 132.096,332.688, 150.816,324.216, 166,316.592
		c 15.16-7.752, 28.656-15.312, 40.44-22.656C 211,291.752, 215.528,288.344, 220.096,283.816
		l 14.968-15.28c 3.064,10.032, 6.656,19.936, 10.72,29.784
		c 4.16,9.904, 8.528,19.376, 13.16,28.344C 263.56,335.688, 268.752,344, 274.592,351.528
		c 5.84,7.504, 12.44,13.656, 19.84,18.56C 294.096,365.784, 292.28,361.56, 288.816,357.44
		c 4.216,4.28, 8.84,7.752, 13.784,10.408s 10.184,4.408, 15.656,5.344
		C 317.624,368.872, 315.096,365.312, 310.408,362.624c-4.504-2.752-8.528-4.816-11.936-6.312
		c 1.216,0.344, 3.752,1.344, 7.376,2.904c 3.752,1.592, 7.688,3.096, 11.84,4.408
		c 4.184,1.312, 7.904,2.16, 11.344,2.504c 3.376,0.408, 5.376-0.344, 6.032-2.248
		c 0.872-2.248, 0.312-4.16-1.72-5.752c-1.968-1.56-4.504-2.936-7.44-4.16
		c-2.84-1.096-5.816-2-8.656-2.752C 314.312,350.44, 312.376,349.872, 311.504,349.56
		L 302.688,345.872c 1.752,0.184, 3.472,0.248, 5.184,0.248
		c 7.248,0, 14.344-1.28, 21.248-3.936c 8.528-3.184, 16.312-8.096, 23.344-14.72
		c 7.064-6.528, 13.312-14.248, 18.624-23.064c 5.344-8.872, 9.312-18.344, 11.816-28.504
		l 0.936-4.472c 0.28-1.528, 0.656-3.216, 0.968-5.064
		c 3.096-1.16, 6.872-1.84, 11.312-2.16c 4.408-0.216, 8.752,0, 13.16,0.872
		c 4.248,0.84, 8.16,1.904, 11.752,3.184c 3.472,1.344, 6.312,2.56, 8.376,3.688
		c-2.504-7.344-7.376-13.528-14.56-18.44c-7.16-5-16.096-7.816-26.752-8.624
		c 5.248-2.624, 11.968-4.504, 20.312-5.656c 3.816-0.376, 7.472-0.56, 11.128-0.56
		c 4.16,0, 8.128,0.312, 11.72,0.872C 426.72,234.472, 420.904,230.096, 413.816,226.344z" data-tags="tWr-aLt-16" />
<glyph unicode="&#xe013;" d="M 512,383.408c-17.968-7.984-48.16-9.16-68.472-11.576
	c 2.904,7.856, 34.216,51.376, 34.216,51.376s-30.936-15.72-53.816-20.216
	c-18.312,19.504-44.376,31.688-73.248,31.688c-55.376,0-100.312-44.92-100.312-100.344
	c0-7.856, 0.872-15.512, 2.592-22.856C 169.56,315.656, 81.504,355.28, 32,416
	c0,0-32-98.872, 45.312-133.656C 60.872,282.872, 32,288.44, 32,288c0-48.592, 34.472-83.528, 80.376-92.752
	C 103.936,192.968, 70.128,190.832, 64,192c 12.752-39.856, 84.096-63.184, 128-64c-64-32-184.16-31.92-192-31
	C 44.408,68.528, 103.528,36.472, 160,32c 232.032-18.36, 324.688,148.44, 291.376,290.704
	c-1,4.232-0.096,8.688-0.28,12.984C 470.688,349.832, 498.56,363.28, 512,383.408z" data-tags="tWr-16" />
<glyph unicode="&#xe014;" d="M 384,96L 304,96 C 259.888,96, 224,131.888, 224,176L 224,224 l 128,0 c 26.512,0, 48,21.488, 48,48S 378.512,320, 352,320L 224,320 L 224,416 
			c0,26.512-21.488,48-48,48S 128,442.512, 128,416l0-240 C 128,78.952, 206.952,0, 304,0L 384,0 c 26.512,0, 48,21.488, 48,48
			S 410.512,96, 384,96z" data-tags="tUb-16" />
<glyph unicode="&#xe015;" d="M 256-28.424c-139.184,0-252.424,113.232-252.424,252.424S 116.816,476.424, 256,476.424
		S 508.424,363.184, 508.424,224S 395.184-28.424, 256-28.424z M 256,412.424
		C 152.112,412.424, 67.576,327.888, 67.576,224S 152.112,35.576, 256,35.576S 444.424,120.112, 444.424,224
		S 359.888,412.424, 256,412.424zM 187.936,353.16c 7.16,4.296, 16.408,2.376, 21.264-4.424l 73.048-102.296l0,0
		l 99.768-48.936c 7.392-3.624, 10.832-12.264, 7.936-19.984l-6.504-17.296
		c-2.888-7.72-11.16-11.968-19.112-9.84l-119.984,32.112L 238.592,184.032
		C 234.16,185.216, 230.44,188.264, 228.408,192.392L 225.528,198.168c0,0.016,0,0.016,0,0.032
		L 164.184,321.736c-3.704,7.472-1.048,16.544, 6.112,20.84L 187.936,353.16z" data-tags="tMe-aLt-16" />
<glyph unicode="&#xe016;" d="M 256,471.984c-136.44,0-247.064-110.608-247.064-247.080S 119.56-22.168, 256-22.168
		s 247.064,110.608, 247.064,247.080S 392.44,471.984, 256,471.984z M 418.472,179.904L 409,158.112
		c-3.408-7.84-12.376-11.624-20.376-8.576L 223.16,180.752
		c-0.096,0.048-0.216,0.080-0.312,0.112l-6.936,2.504
		C 211.84,184.832, 208.528,187.888, 206.752,191.84L 203.84,198.296L 137.872,345.016
		C 134.472,352.624, 137.472,361.592, 144.784,365.608l 20.184,11.048
		C 172.248,380.64, 181.408,378.392, 186,371.456l 75.936-127.968l 149.592-43.184
		C 418.752,196.312, 421.784,187.488, 418.472,179.904z" data-tags="tMe-16" />
<glyph unicode="&#xe017;" d="M 532.768,298.496L 513.888,318.376c-34.392-32.624-88.704-31.184-121.312,3.184
		c-32.624,34.408-31.2,88.688, 3.184,121.312l-20.504,21.624
		c-10.872,11.472-28.968,11.936-40.456,1.064L 44.296,189.936
		c-11.456-10.872-11.936-29-1.048-40.44l 20.504-21.624
		c 34.392,32.624, 88.704,31.216, 121.312-3.184c 32.608-34.376, 31.2-88.688-3.2-121.312
		l 18.872-19.872c 10.872-11.472, 28.968-11.936, 40.456-1.064l 290.512,275.624
		C 543.16,268.936, 543.64,287.064, 532.768,298.496z" data-tags="tKt-16" />
<glyph unicode="&#xe018;" d="M 192,294.408C 192,290.872, 189.128,288, 185.592,288L 6.408,288 C 2.872,288,0,290.872,0,294.408L0,473.592 
	C0,477.128, 2.872,480, 6.408,480l 179.184,0 C 189.128,480, 192,477.128, 192,473.592L 192,294.408 zM 480,294.408C 480,290.872, 477.128,288, 473.592,288L 294.408,288 C 290.872,288, 288,290.872, 288,294.408L 288,473.592 
	C 288,477.128, 290.872,480, 294.408,480l 179.184,0 C 477.128,480, 480,477.128, 480,473.592L 480,294.408 zM 192,6.408C 192,2.872, 189.128,0, 185.592,0L 6.408,0 C 2.872,0,0,2.872,0,6.408L0,185.592 
	C0,189.128, 2.872,192, 6.408,192l 179.184,0 C 189.128,192, 192,189.128, 192,185.592L 192,6.408 zM 480,6.408C 480,2.872, 477.128,0, 473.592,0L 294.408,0 C 290.872,0, 288,2.872, 288,6.408L 288,185.592 
	C 288,189.128, 290.872,192, 294.408,192l 179.184,0 C 477.128,192, 480,189.128, 480,185.592L 480,6.408 z" data-tags="tH-lR-16" />
<glyph unicode="&#xe019;" d="M 128,358.408C 128,354.872, 125.128,352, 121.592,352L 6.408,352 C 2.872,352,0,354.872,0,358.408L0,473.592 
	C0,477.128, 2.872,480, 6.408,480l 115.184,0 C 125.128,480, 128,477.128, 128,473.592L 128,358.408 zM 320,358.408C 320,354.872, 317.128,352, 313.592,352L 198.408,352 C 194.872,352, 192,354.872, 192,358.408L 192,473.592 
	C 192,477.128, 194.872,480, 198.408,480l 115.184,0 C 317.128,480, 320,477.128, 320,473.592L 320,358.408 zM 512,358.408C 512,354.872, 509.128,352, 505.592,352l-115.184,0 C 386.872,352, 384,354.872, 384,358.408L 384,473.592 
	C 384,477.128, 386.872,480, 390.408,480l 115.184,0 C 509.128,480, 512,477.128, 512,473.592L 512,358.408 zM 128,166.408C 128,162.872, 125.128,160, 121.592,160L 6.408,160 C 2.872,160,0,162.872,0,166.408L0,281.592 
	C0,285.128, 2.872,288, 6.408,288l 115.184,0 C 125.128,288, 128,285.128, 128,281.592L 128,166.408 zM 320,166.408C 320,162.872, 317.128,160, 313.592,160L 198.408,160 C 194.872,160, 192,162.872, 192,166.408L 192,281.592 
	C 192,285.128, 194.872,288, 198.408,288l 115.184,0 C 317.128,288, 320,285.128, 320,281.592L 320,166.408 zM 512,166.408C 512,162.872, 509.128,160, 505.592,160l-115.184,0 C 386.872,160, 384,162.872, 384,166.408L 384,281.592 
	C 384,285.128, 386.872,288, 390.408,288l 115.184,0 C 509.128,288, 512,285.128, 512,281.592L 512,166.408 zM 128-25.592C 128-29.128, 125.128-32, 121.592-32L 6.408-32 C 2.872-32,0-29.128,0-25.592l0,115.184 
	C0,93.128, 2.872,96, 6.408,96l 115.184,0 C 125.128,96, 128,93.128, 128,89.592L 128-25.592 zM 320-25.592C 320-29.128, 317.128-32, 313.592-32L 198.408-32 C 194.872-32, 192-29.128, 192-25.592l0,115.184 
	C 192,93.128, 194.872,96, 198.408,96l 115.184,0 C 317.128,96, 320,93.128, 320,89.592L 320-25.592 zM 512-25.592C 512-29.128, 509.128-32, 505.592-32l-115.184,0 C 386.872-32, 384-29.128, 384-25.592
	l0,115.184 C 384,93.128, 386.872,96, 390.408,96l 115.184,0 C 509.128,96, 512,93.128, 512,89.592L 512-25.592 z" data-tags="tH-16" />
<glyph unicode="&#xe01a;" d="M 380.984,6.624c-9.312,0-18.2,2.904-25.72,8.408l-99.36,73.032L 156.504,16.248
			c-15.032-10.816-36.184-10.72-51.032,0.16C 90.232,27.592, 84,47.16, 89.968,65.128
			l 37.232,111.656L 30.832,243.872c-15.672,11-22.16,29.504-16.56,47.184
			C 19.816,308.656, 36.048,320, 55.608,320l 121.36,0 l 38.376,103.904
			c 6.528,17.376, 22.84,28.968, 40.64,28.968c 17.768,0, 34.080-11.752, 40.592-29.248L 334.984,320
			l 121.184,0 c 19.576,0, 35.816-11.344, 41.36-28.936c 5.688-18.16-0.84-36.936-16.624-47.904
			l-96.16-66.44l 37.36-113.344c 5.904-17.872-0.408-37.376-15.72-48.504
			C 398.984,9.472, 390.184,6.624, 380.984,6.624z M 256.064,127.624l 118.144-86.784
			c 3.92-2.904, 9.488-2.936, 13.36-0.096c 4.032,2.904, 5.688,7.968, 4.16,12.592
			l-44.84,136.064l 115.816,80.064c 4.144,2.872, 5.768,7.376, 4.328,12
			C 465.096,287.528, 458.232,288, 456.168,288L 312.704,288 l-46.112,124.472
			C 263,422.16, 248.84,422, 245.344,412.752L 199.248,288L 55.608,288 
			C 53.544,288, 46.704,287.528, 44.768,281.44c-1.408-4.504, 0.064-8.312, 4.392-11.344
			l 115.984-80.752L 120.328,55c-1.56-4.72, 0.064-9.84, 4.064-12.784
			c 3.856-2.872, 9.472-2.84, 13.376-0.032L 256.064,127.624z" data-tags="sTr-oT-aLt-16" />
<glyph unicode="&#xe01b;" d="M 400.768-13.688c-6.344,0-12.904,2.56-20.096,7.784L 256,84.656l-124.688-90.56
		c-14.888-10.84-29.376-9.688-36.872,0.624c-4.952,6.84-5.592,16.096-1.872,27.528
		l 47.624,146.56L 15.512,259.408c-16.392,11.936-15.592,23.688-13.656,29.624
		C 3.8,295, 10.080,304.968, 30.328,304.968l 154.080,0 l 47.64,146.56
		C 238.296,470.816, 249.736,473.688, 256,473.688s 17.704-2.872, 23.952-22.16l 47.624-146.56l 154.112,0 
		c 20.248,0, 26.528-9.968, 28.472-15.936c 1.936-5.936, 2.736-17.688-13.64-29.624
		l-124.704-90.592l 47.624-146.592c 3.72-11.408, 3.080-20.656-1.872-27.504
		C 413.688-10.624, 407.56-13.688, 400.768-13.688z M 51.28,272.968l 126.528-91.904
		l-48.328-148.752L 256,124.216l 126.512-91.904l-48.328,148.752l 126.544,91.904L 304.328,272.968 L 256,421.688
		L 207.656,272.968L 51.28,272.968 z" data-tags="sTr-oT-16" />
<glyph unicode="&#xe01c;" d="M 256,462.496c-12.72,0-24.096-6.816-28.56-18.72L 180.376,320L 32.688,320 
	C 19.376,320, 7.624,309.216, 3.624,296.496c-4-12.688, 0.752-28.624, 11.656-36.248
	l 118.344-82.44l-45.688-137.064c-4.184-12.56, 0.184-26.376, 10.872-34.184
	c 10.624-7.84, 25.16-7.872, 35.872-0.128L 256,94.096L 256,462.496 z" data-tags="sTr-hL-aLt-16" />
<glyph unicode="&#xe01d;" d="M 256,469.688L 255.128,472.376L 195.232,288L 1.36,288L 158.2,173.064L 98.28-12.344L 255.128,101.752L 256,101.128 z" data-tags="sTr-hL-16" />
<glyph unicode="&#xe01e;" d="M 255.128,472.376L 315.016,288L 508.888,288L 352.048,173L 411.968-11.936L 255.128,101.752L 98.28-12.344L 158.2,173.064L 1.36,288L 195.232,288 	z" data-tags="sTr-aLt-16" />
<glyph unicode="&#xe01f;" d="M 227.456,443.784C 231.904,455.688, 243.28,462.512, 256,462.512
		c 12.704,0, 24.096-6.28, 28.528-18.2L 331.624,320l 147.456,0 c 13.312,0, 25.096-10.784, 29.096-23.504
		c 3.968-12.72-0.768-27.608-11.704-35.216l-118.096-82.544l 45.8-139.344
		c 4.16-12.592-0.312-26.528-11.048-34.328c-10.72-7.784-25.264-7.832-35.936,0.032
		L 256,94.096l-121.328-87.672c-10.704-7.752-25.216-7.704-35.872,0.144
		c-10.672,7.832-15.064,21.64-10.872,34.184l 45.704,137.064L 15.28,260.248
		c-10.92,7.608-15.64,23.576-11.656,36.264C 7.624,309.216, 19.392,320, 32.704,320l 147.656,0 
		L 227.456,443.784z" data-tags="sTr-16" />
<glyph unicode="&#xe020;" d="M 496,176C 504.84,176, 512,183.16, 512,192L 512,256 c0,8.84-7.16,16-16,16l-60.688,0 
		c-4.248,15.904-10.472,30.952-18.528,44.872l 42.872,42.888
		c 6.248,6.248, 6.248,16.376,0,22.624l-45.248,45.248c-6.248,6.248-16.376,6.248-22.624,0
		l-42.872-42.872C 334.968,392.84, 319.904,399.096, 304,403.344L 304,464 C 304,472.84, 296.84,480, 288,480L 224,480 
		C 215.16,480, 208,472.84, 208,464l0-60.656 c-15.904-4.248-30.968-10.504-44.904-18.576L 120.216,427.64
		c-6.248,6.248-16.376,6.248-22.624,0L 52.344,382.392c-6.248-6.248-6.248-16.376,0-22.624
		l 42.872-42.888C 87.16,302.952, 80.936,287.904, 76.688,272L 16,272 C 7.16,272,0,264.84,0,256l0-64 
		c0-8.84, 7.16-16, 16-16l 60.688,0 c 4.248-15.904, 10.472-30.952, 18.528-44.872l-42.872-42.888
		c-6.248-6.248-6.248-16.376,0-22.624l 45.248-45.248c 6.248-6.248, 16.376-6.248, 22.624,0
		l 42.872,42.872C 177.032,55.16, 192.096,48.904, 208,44.656L 208-16 C 208-24.84, 215.16-32, 224-32l 64,0 
		c 8.84,0, 16,7.16, 16,16l0,60.656 c 15.904,4.248, 30.968,10.504, 44.904,18.576l 42.872-42.872
		c 6.248-6.248, 16.376-6.248, 22.624,0l 45.248,45.248c 6.248,6.248, 6.248,16.376,0,22.624
		l-42.872,42.888C 424.84,145.048, 431.064,160.096, 435.312,176L 496,176 z M 256,155.952
		c-37.56,0-68.064,30.472-68.064,68.048S 218.44,292.048, 256,292.048S 324.064,261.576, 324.064,224
		S 293.56,155.952, 256,155.952z" data-tags="sTg-16" />
<glyph unicode="&#xe021;" d="M 513.936,33.936l-129.096,129.096C 404.472,194.784, 416,232.032, 416,272C 416,386.688, 322.688,480, 208,480
		S0,386.688,0,272S 93.312,64, 208,64c 39.968,0, 77.216,11.528, 108.968,31.16l 129.096-129.096
		L 513.936,33.936z M 64,272C 64,351.408, 128.592,416, 208,416S 352,351.408, 352,272S 287.408,128, 208,128S 64,192.592, 64,272z" data-tags="sRh-16" />
<glyph unicode="&#xe022;" d="M 512-16c0-8.84-7.16-16-16-16l-480,0 C 7.16-32,0-24.84,0-16l0,480 C0,472.84, 7.16,480, 16,480l 480,0 
			C 504.84,480, 512,472.84, 512,464L 512-16 z M 96,64l 320,0 L 416,384 L 96,384 L 96,64 z" data-tags="sQ-16" />
<glyph unicode="&#xe023;" d="M 121.592,96L 6.408,96 C 2.872,96,0,93.128,0,89.592l0-115.184 C0-29.128, 2.872-32, 6.408-32
		l 115.184,0 C 125.128-32, 128-29.128, 128-25.592l0,115.184 C 128,93.128, 125.128,96, 121.592,96zM 313.592,96L 198.408,96 C 194.872,96, 192,93.128, 192,89.592l0-115.184 C 192-29.128, 194.872-32, 198.408-32
		l 115.184,0 C 317.128-32, 320-29.128, 320-25.592l0,115.184 C 320,93.128, 317.128,96, 313.592,96zM 505.592,96l-115.184,0 C 386.872,96, 384,93.128, 384,89.592l0-115.184 
		C 384-29.128, 386.872-32, 390.408-32l 115.184,0 C 509.128-32, 512-29.128, 512-25.592l0,115.184 
		C 512,93.128, 509.128,96, 505.592,96zM 505.592,480L 6.408,480 C 2.872,480,0,477.128,0,473.592l0-307.184 C0,162.872, 2.872,160, 6.408,160l 499.184,0 
		C 509.128,160, 512,162.872, 512,166.408L 512,473.592 C 512,477.128, 509.128,480, 505.592,480z" data-tags="sLd-16" />
<glyph unicode="&#xe024;" d="M 384,128l0-32 L 96,96 L 96,320 l 32,0 l 64,64L 64,384 C 46.408,384, 32,369.592, 32,352l0-288 c0-17.592, 14.408-32, 32-32l 352,0 c 17.592,0, 32,14.408, 32,32L 448,192 L 384,128zM 480,320l-128,128l0-64.032 C 288,380.44, 158.872,352, 141.344,128C 141.344,128, 192,269.472, 352,266.904L 352,192 L 480,320z" data-tags="sHr-aLt-16" />
<glyph unicode="&#xe025;" d="M 416,136.216L 416,96 L 96,96 L 96,320 l 36.344,0 l 67.872,96L 64,416 C 28.816,416,0,387.184,0,352l0-288 c0-35.184, 28.816-64, 64-64l 384,0 
	c 35.184,0, 64,28.816, 64,64L 512,232.216 L 416,136.216zM 512,320l-160,128l0-64.032 C 288,380.44, 141.56,320, 128,128c0,0, 64,130.56, 224,128l0-64 L 512,320z" data-tags="sHr-16" />
<glyph unicode="&#xe026;" d="M 503.44,277.784c 2.16,1.8, 3.376,4.456, 3.408,7.264
		c 0.032,2.8-1.184,5.472-3.28,7.312L 303.904,466.16
		c-2.84,2.472-6.872,3.064-10.28,1.504C 290.184,466.096, 288,462.672, 288,458.92l0-75.688 
		C 181.784,377.576,0,331.064,0-32c0,0, 55.032,229.528, 288,225.376l0-76.72 
		c0-3.736, 2.16-7.128, 5.56-8.704c 3.376-1.576, 7.376-1.032, 10.216,1.376
		L 503.44,277.784z" data-tags="rPl-rT-16" />
<glyph unicode="&#xe027;" d="M 256,474.752C 117.528,474.752, 5.248,362.472, 5.248,224c0-138.504, 112.28-250.752, 250.752-250.752
		S 506.752,85.496, 506.752,224C 506.752,362.472, 394.472,474.752, 256,474.752z M 379.72,123.688
		C 366.376,146.688, 318.688,173.872, 256,173.872l0-75.248 L 130.624,224L 256,349.376c0,0,0-50.128,0-75.248
		c 94.032,0, 127.888-65.344, 127.888-119C 383.888,147.408, 381.92,130.872, 379.72,123.688z" data-tags="rPl-lT-aLt-16" />
<glyph unicode="&#xe028;" d="M 256,461.72C 124.72,461.72, 18.28,355.28, 18.28,224S 124.72-13.72, 256-13.72
			S 493.72,92.72, 493.72,224S 387.28,461.72, 256,461.72z M 362.36,162.904
			c 3.736-3.736, 3.736-9.832,0-13.56l-31.704-31.704
			c-3.736-3.736-9.832-3.736-13.56,0L 256,178.736l-61.096-61.096
			c-3.736-3.736-9.832-3.736-13.56,0l-31.704,31.704
			c-3.736,3.736-3.736,9.832,0,13.56L 210.736,224L 149.64,285.096
			c-3.736,3.736-3.736,9.832,0,13.56l 31.704,31.704c 3.736,3.736, 9.832,3.736, 13.56,0
			L 256,269.264l 61.096,61.096c 3.736,3.736, 9.832,3.736, 13.56,0l 31.704-31.704
			c 3.736-3.736, 3.736-9.832,0-13.56L 301.264,224L 362.36,162.904z" data-tags="rMv-aLt-16" />
<glyph unicode="&#xe029;" d="M 429.096,358.624c 2.504,2.504, 2.504,6.56,0,9.064l-29.376,29.408
	c-2.504,2.504-6.56,2.504-9.064,0L 256,262.456L 121.344,397.096
	c-2.504,2.504-6.56,2.504-9.064,0L 82.904,367.688c-2.504-2.504-2.504-6.56,0-9.064
	L 217.528,224l-134.624-134.624c-2.504-2.504-2.504-6.56,0-9.064l 29.376-29.408
	c 2.504-2.504, 6.56-2.504, 9.064,0L 256,185.544l 134.656-134.64
	c 2.504-2.504, 6.56-2.504, 9.064,0l 29.376,29.408c 2.504,2.504, 2.504,6.56,0,9.064
	L 294.472,224L 429.096,358.624z" data-tags="rMv-16" />
<glyph unicode="&#xe02a;" d="M 429.904,216.56c-0.032,1.72-0.784,3.376-2.064,4.528
		c-1.248,1.184-2.936,1.816-4.688,1.72l-38.376-2.064
		c-3.408-0.184-6.096-3.064-6.032-6.472c 0.472-36.904-12.72-72.128-37.472-99.752
		c-26.096-29.128-62.064-46.376-101.216-48.504c-38.84-2.216-76.656,11.064-105.816,37.248
		c-29.16,26.16-46.408,62.064-48.504,101.16C 83.624,243.528, 96.84,281.128, 123,310.312
		c 26.128,29.128, 62.064,46.376, 101.128,48.504c 31.344,1.72, 61.184-6.72, 86.84-23.248
		L 280.44,292.496C 278.408,289.624, 279.624,287.376, 283.16,287.472L 413.248,291
		c 3.528,0.096, 5.528,2.936, 4.44,6.28l-39.784,123.904
		c-1.096,3.344-3.624,3.752-5.656,0.872l-31.56-44.528
		c-35.128,23.128-76.376,34.504-119.344,32.408C 168.624,407.064, 120.16,383.816, 84.872,344.496
		C 49.592,305.128, 31.752,254.408, 34.624,201.656c 2.84-52.72, 26.096-101.184, 65.44-136.504
		c 36.592-32.816, 83.032-50.56, 131.784-50.56c 3.656,0, 7.344,0.128, 11.032,0.312
		c 52.816,2.872, 101.312,26.128, 136.528,65.44C 413.184,118.032, 430.968,166.184, 429.904,216.56z" data-tags="rF-r-16" />
<glyph unicode="&#xe02b;" d="M 258.232,409.936C 215.528,412.096, 174.096,400.656, 138.952,377.528L 107.408,422.064
		C 105.376,424.936, 102.832,424.528, 101.752,421.184L 61.92,297.28
		C 60.84,293.936, 62.84,291.096, 66.36,291l 130.112-3.528
		C 199.984,287.376, 201.184,289.624, 199.16,292.496L 168.672,335.56
		c 25.736,16.56, 55.736,25, 86.8,23.248c 39.096-2.128, 75.032-19.376, 101.168-48.504
		c 26.144-29.184, 39.376-66.784, 37.248-105.872c-2.144-39.096-19.36-75.032-48.512-101.16
		c-29.168-26.184-66.888-39.504-105.832-37.248c-39.144,2.128-75.080,19.376-101.2,48.504
		C 113.592,142.16, 100.408,177.376, 100.888,214.28c 0.048,3.408-2.624,6.28-6.048,6.472
		L 56.472,222.816C 54.736,222.904, 53.032,222.28, 51.768,221.096
		C 50.504,219.936, 49.752,218.28, 49.72,216.56c-1.080-50.376, 16.72-98.528, 50.504-136.216
		c 35.248-39.312, 83.752-62.56, 136.544-65.44c 3.672-0.184, 7.36-0.312, 11.016-0.312
		c 48.736,0, 95.168,17.752, 131.784,50.56c 39.328,35.248, 62.576,83.72, 65.456,136.504
		c 2.856,52.752-14.984,103.472-50.264,142.84C 359.472,383.816, 311,407.064, 258.232,409.936z" data-tags="rF-l-16" />
<glyph unicode="&#xe02c;" d="M 512,326.408C 512,322.872, 509.128,320, 505.592,320L 6.408,320 C 2.872,320,0,322.872,0,326.408L0,409.592 
	C0,413.128, 2.872,416, 6.408,416l 499.184,0 C 509.128,416, 512,413.128, 512,409.592L 512,326.408 zM 512,166.408C 512,162.872, 509.128,160, 505.592,160L 6.408,160 C 2.872,160,0,162.872,0,166.408L0,249.592 
	C0,253.128, 2.872,256, 6.408,256l 499.184,0 C 509.128,256, 512,253.128, 512,249.592L 512,166.408 zM 512,6.408C 512,2.872, 509.128,0, 505.592,0L 6.408,0 C 2.872,0,0,2.872,0,6.408l0,83.184 
	C0,93.128, 2.872,96, 6.408,96l 499.184,0 C 509.128,96, 512,93.128, 512,89.592L 512,6.408 z" data-tags="rE-oDr-16" />
<glyph unicode="&#xe02d;" d="M 192,332.312L 192,384 c 108.312,0, 192-87.376, 192-192l0-121.592 C 384,66.872, 381.128,64, 377.592,64L 198.408,64 
	C 194.872,64, 192,66.872, 192,70.408L 192,217.592 C 192,221.128, 194.872,224, 198.408,224L 288,224 C 288,320, 192,332.312, 192,332.312z" data-tags="qUt-rT-16" />
<glyph unicode="&#xe02e;" d="M 384,332.312L 384,384 C 275.688,384, 192,296.624, 192,192l0-121.592 C 192,66.872, 194.872,64, 198.408,64l 179.184,0 
	C 381.128,64, 384,66.872, 384,70.408L 384,217.592 C 384,221.128, 381.128,224, 377.592,224L 288,224 C 288,320, 384,332.312, 384,332.312z" data-tags="qUt-lT-16" />
<glyph unicode="&#xe02f;" d="M 288,332.312L 288,384 c 108.312,0, 192-87.376, 192-192l0-121.592 C 480,66.872, 477.128,64, 473.592,64L 294.408,64 
	C 290.872,64, 288,66.872, 288,70.408L 288,217.592 C 288,221.128, 290.872,224, 294.408,224L 384,224 C 384,320, 288,332.312, 288,332.312zM 32,332.312L 32,384 c 108.312,0, 192-87.376, 192-192l0-121.592 C 224,66.872, 221.128,64, 217.592,64L 38.408,64 
	C 34.872,64, 32,66.872, 32,70.408L 32,217.592 C 32,221.128, 34.872,224, 38.408,224L 128,224 C 128,320, 32,332.312, 32,332.312z" data-tags="qUt-dL-rT-16" />
<glyph unicode="&#xe030;" d="M 224,332.312L 224,384 C 115.688,384, 32,296.624, 32,192l0-121.592 C 32,66.872, 34.872,64, 38.408,64l 179.184,0 
	C 221.128,64, 224,66.872, 224,70.408L 224,217.592 C 224,221.128, 221.128,224, 217.592,224L 128,224 C 128,320, 224,332.312, 224,332.312zM 480,332.312L 480,384 c-108.312,0-192-87.376-192-192l0-121.592 C 288,66.872, 290.872,64, 294.408,64l 179.184,0 
	C 477.128,64, 480,66.872, 480,70.408L 480,217.592 C 480,221.128, 477.128,224, 473.592,224L 384,224 C 384,320, 480,332.312, 480,332.312z" data-tags="qUt-dL-lT-16" />
<glyph unicode="&#xe031;" d="M 256,472c-136.44,0-247.064-110.624-247.064-247.096S 119.56-22.184, 256-22.184
	s 247.064,110.624, 247.064,247.096S 392.44,472, 256,472z M 288,32L 224,32 l0,96 l 64,0 L 288,32 z M 332.528,213.184
	c-19.312-12.408-31.28-16-38.656-24.752C 287.44,180.16, 285.16,160, 285.16,160L 218.904,160 
	c0,32, 9.656,55.56, 31.752,73.968c 20.216,18.872, 46.44,24.344, 46.44,52.408
	c0,21.624-17,41.752-39.096,41.752C 230.408,328.128, 211.56,288, 211.56,288L 137.504,288 
	c 1.376,64, 46.904,101.504, 123.72,101.504c 68.528,0, 114.528-42.128, 114.528-97.816
	C 375.752,248.44, 352.752,226.528, 332.528,213.184z" data-tags="qSt-16" />
<glyph unicode="&#xe032;" d="M 416,352l0-64 l 32,0 l0-224 L 224,64 L 192,64 L 128,64 l0-89.592 C 128-29.128, 130.872-32, 134.408-32l 371.184,0 
		C 509.128-32, 512-29.128, 512-25.592L 512,345.592 C 512,349.128, 509.128,352, 505.592,352L 416,352 zM 6.408,480C 2.872,480,0,477.128,0,473.592l0-371.184 C0,98.872, 2.872,96, 6.408,96l 371.184,0 
	C 381.128,96, 384,98.872, 384,102.408L 384,473.592 C 384,477.128, 381.128,480, 377.592,480L 6.408,480 z M 320,224L 64,224 L 64,416 l 256,0 L 320,224 z" data-tags="pTo-16" />
<glyph unicode="&#xe033;" d="M 275.656,470.264c-145.408,0-206.904-98.56-206.904-180.816
		c0-49.752, 18.84-94.032, 59.312-110.544c 6.592-2.752, 12.528-0.096, 14.504,7.2
		C 143.904,191.216, 147.032,204, 148.472,209.36c 1.904,7.264, 1.16,9.8-4.216,16.128
		C 132.656,239.232, 126.504,260.248, 126.504,285.472c0,73.128, 49.528,122.376, 137.312,122.376
		c 64.408,0, 113.656-34.28, 113.656-97.688c0-83.456-26.312-154.112-81.184-154.112
		c-30.216,0-52.872,25.080-45.56,55.768c 8.624,36.64, 25.472,76.264, 25.472,102.72
		c0,23.688-12.688,43.44-39,43.44c-30.968,0-55.816-32-55.816-74.92
		c0-27.312, 9.248-45.8, 9.248-45.8s-31.688-134.184-37.312-157.704
		c-11.032-46.832-1.624-104.2-0.784-110c 0.472-3.44, 4.816-4.248, 6.872-1.672
		c 2.784,3.736, 39.72,49.264, 52.216,94.736c 3.528,12.904, 20.408,79.56, 20.408,79.56
		c 10.032-19.2, 39.376-36.080, 70.688-36.080c 93.032,0, 156.16,84.832, 156.16,198.36
		C 458.872,390.312, 386.128,470.264, 275.656,470.264z" data-tags="pNi-16" />
<glyph unicode="&#xe034;" d="M 256,461.72C 124.72,461.72, 18.28,355.28, 18.28,224S 124.72-13.72, 256-13.72
			S 493.72,92.72, 493.72,224S 387.28,461.72, 256,461.72z M 384,201.592C 384,196.296, 379.704,192, 374.408,192L 288,192 
			l0-86.408 C 288,100.296, 283.704,96, 278.408,96L 233.592,96 C 228.296,96, 224,100.296, 224,105.592L 224,192 L 137.592,192 
			C 132.296,192, 128,196.296, 128,201.592L 128,246.408 C 128,251.704, 132.296,256, 137.592,256L 224,256 L 224,342.408 
			C 224,347.704, 228.296,352, 233.592,352l 44.816,0 C 283.704,352, 288,347.704, 288,342.408L 288,256 l 86.408,0 
			C 379.704,256, 384,251.704, 384,246.408L 384,201.592 z" data-tags="pLs-aLt-16" />
<glyph unicode="&#xe035;" d="M 448,249.592C 448,253.128, 445.128,256, 441.592,256L 288,256 L 288,409.592 C 288,413.128, 285.128,416, 281.592,416L 230.408,416 
	C 226.872,416, 224,413.128, 224,409.592L 224,256 L 70.408,256 C 66.872,256, 64,253.128, 64,249.592l0-51.184 
	C 64,194.872, 66.872,192, 70.408,192L 224,192 l0-153.592 C 224,34.872, 226.872,32, 230.408,32l 51.184,0 
	C 285.128,32, 288,34.872, 288,38.408L 288,192 l 153.592,0 C 445.128,192, 448,194.872, 448,198.408L 448,249.592 z" data-tags="pLs-16" />
<glyph unicode="&#xe036;" d="M 406.408,480L 73.592,480 C 68.296,480, 64,475.704, 64,470.408l0-396.816 C 64,68.296, 68.296,64, 73.592,64L 128,64 
			l 142.624-87.16c 2.952-1.816, 6.64-1.888, 9.672-0.2
			c 3.016,1.672, 4.904,4.856, 4.936,8.312L 287.952,314.512
			c 0.032,3.392-1.752,6.56-4.656,8.312L 128,416l 224,0 l0-288 l0-64 l 54.408,0 C 411.704,64, 416,68.296, 416,73.592
			L 416,470.408 C 416,475.704, 411.704,480, 406.408,480z" data-tags="oPn-16" />
<glyph unicode="&#xe037;" d="M 256,461.72C 124.72,461.72, 18.28,355.28, 18.28,224S 124.72-13.72, 256-13.72
			S 493.72,92.72, 493.72,224S 387.28,461.72, 256,461.72z M 375.144,287.496l-117.872-151.688
			c-4.936-6.36-13.856-8.048-20.8-3.936l-87.888,52.144
			C 144.92,186.184, 142.28,189.736, 141.232,193.856S 140.832,202.344, 143.016,206l 16.296,27.216
			C 161.512,236.888, 165.096,239.528, 169.248,240.544s 8.544,0.328, 12.184-1.92l 41.704-25.704
			c 6.952-4.28, 16.016-2.64, 21.032,3.8l 83.296,107.2
			c 5.344,6.888, 15.232,8.216, 22.216,2.984l 22.424-16.784
			c 3.424-2.576, 5.688-6.424, 6.264-10.672C 378.936,295.184, 377.784,290.888, 375.144,287.496z" data-tags="oK-aLt-16" />
<glyph unicode="&#xe038;" d="M 244.784,12.264c-4.952-6.392-13.904-8.064-20.84-3.904L 53.112,110.592
			c-3.64,2.184-6.264,5.72-7.312,9.832c-1.032,4.128-0.392,8.488, 1.8,12.128
			l 32.872,54.92c 4.544,7.576, 14.36,10.048, 21.952,5.504l 97.888-58.576
			c 6.936-4.16, 15.888-2.488, 20.84,3.904l 184.28,237.128
			c 5.424,6.968, 15.472,8.232, 22.456,2.816l 50.528-39.28
			c 3.36-2.592, 5.528-6.424, 6.064-10.64c 0.528-4.2-0.64-8.456-3.232-11.816
			L 244.784,12.264z" data-tags="oK-16" />
<glyph unicode="&#xe039;" d="M 493.704,25.688L 269.032,451.096c-7.168,13.56-18.888,13.56-26.064,0L 18.296,25.688
	C 11.128,12.128, 17.816,0, 33.128,0l 445.752,0 C 494.184,0, 500.872,12.128, 493.704,25.688z
	 M 288,70.408C 288,66.872, 285.128,64, 281.592,64L 230.408,64 C 226.872,64, 224,66.872, 224,70.408l0,51.184 
	C 224,125.128, 226.872,128, 230.408,128l 51.184,0 C 285.128,128, 288,125.128, 288,121.592L 288,70.408 z M 288,262.408
	c0-3.528-0.592-9.216-1.328-12.656l-18.968-89.968
	c-0.736-3.44-4.2-6.312-7.72-6.408L 250.888,153.16
	c-3.512-0.096-6.952,2.656-7.64,6.128l-18,90.44C 224.56,253.184, 224,258.872, 224,262.408
	L 224,313.592 C 224,317.128, 226.872,320, 230.408,320l 51.184,0 C 285.128,320, 288,317.128, 288,313.592L 288,262.408 z" data-tags="nTf-16" />
<glyph unicode="&#xe03a;" d="M 373.424,479.752c-3.392,0.968-8.888,0.84-12.232-0.28L 180.376,419.216
	c-3.344-1.128-8.888-1.408-12.328-0.656l-161.8,36C 2.816,455.312,0,453.064,0,449.528
	l0-436.752 c0-3.528, 2.816-7.032, 6.248-7.784l 165.2-36.752
	c 3.44-0.752, 8.984-0.472, 12.328,0.656l 178.872,59.56
	c 3.344,1.128, 8.84,1.248, 12.232,0.28l 130.952-37.44
	C 509.232-9.656, 512-7.56, 512-4.032L 512,433.72 c0,3.528-2.768,7.184-6.16,8.16
	L 373.424,479.752z M 352,224L 192,180.184L 192,355.592 l 160,53.344L 352,224 z M 192,147.312l 160,43.784l0-98.688 l-160-53.344L 192,147.312 z
	 M 64,376.096l 96-21.312l0-318.44 l-96,21.312L 64,376.096 z M 448,74.44l-64,18.28L 384,410.16 l 64-18.28L 448,74.44 z" data-tags="mP-vEw-16" />
<glyph unicode="&#xe03b;" d="M 416.592,308.488C 416.84,312, 417.656,315.36, 417.656,318.936
		c0,89.264-72.376,161.64-161.656,161.64S 94.344,408.2, 94.344,318.936
		c0-5.504, 1.096-10.688, 1.624-16.048c 0.096-3.328, 0.504-8.144, 1.504-14.872
		c 0.128-0.608, 0.096-1.264, 0.216-1.872c 4.128-25.752, 17.216-74.184, 58.216-147.888
		C 207.968,44.656, 256-32, 256-32s 49.16,76.656, 101.216,170.248c 64.816,116.488, 60,170.232, 60,170.232
		L 416.592,308.488 z M 256,244.232c-39.312,0-71.184,31.872-71.184,71.184S 216.688,386.608, 256,386.608
		s 71.184-31.872, 71.184-71.184S 295.312,244.232, 256,244.232z" data-tags="mP-mKr-16" />
<glyph unicode="&#xe03c;" d="M 256,461.72C 124.72,461.72, 18.28,355.28, 18.28,224S 124.72-13.72, 256-13.72
			S 493.72,92.72, 493.72,224S 387.28,461.72, 256,461.72z M 384,201.592C 384,196.296, 379.704,192, 374.408,192
			L 137.592,192 C 132.296,192, 128,196.296, 128,201.592L 128,246.408 C 128,251.704, 132.296,256, 137.592,256l 236.816,0 
			C 379.704,256, 384,251.704, 384,246.408L 384,201.592 z" data-tags="mNs-aLt-16" />
<glyph unicode="&#xe03d;" d="M 448,198.408C 448,194.872, 445.128,192, 441.592,192L 70.408,192 C 66.872,192, 64,194.872, 64,198.408L 64,249.592 
	C 64,253.128, 66.872,256, 70.408,256l 371.184,0 C 445.128,256, 448,253.128, 448,249.592L 448,198.408 z" data-tags="mNs-16" />
<glyph unicode="&#xe03e;" d="M 96,326.408C 96,322.872, 93.128,320, 89.592,320L 6.408,320 C 2.872,320,0,322.872,0,326.408L0,409.592 
	C0,413.128, 2.872,416, 6.408,416l 83.184,0 C 93.128,416, 96,413.128, 96,409.592L 96,326.408 zM 96,166.408C 96,162.872, 93.128,160, 89.592,160L 6.408,160 C 2.872,160,0,162.872,0,166.408L0,249.592 
	C0,253.128, 2.872,256, 6.408,256l 83.184,0 C 93.128,256, 96,253.128, 96,249.592L 96,166.408 zM 96,6.408C 96,2.872, 93.128,0, 89.592,0L 6.408,0 C 2.872,0,0,2.872,0,6.408l0,83.184 
	C0,93.128, 2.872,96, 6.408,96l 83.184,0 C 93.128,96, 96,93.128, 96,89.592L 96,6.408 zM 512,326.408C 512,322.872, 509.128,320, 505.592,320L 166.408,320 C 162.872,320, 160,322.872, 160,326.408L 160,409.592 
	C 160,413.128, 162.872,416, 166.408,416l 339.184,0 C 509.128,416, 512,413.128, 512,409.592L 512,326.408 zM 512,166.408C 512,162.872, 509.128,160, 505.592,160L 166.408,160 C 162.872,160, 160,162.872, 160,166.408L 160,249.592 
	C 160,253.128, 162.872,256, 166.408,256l 339.184,0 C 509.128,256, 512,253.128, 512,249.592L 512,166.408 zM 512,6.408C 512,2.872, 509.128,0, 505.592,0L 166.408,0 C 162.872,0, 160,2.872, 160,6.408l0,83.184 
	C 160,93.128, 162.872,96, 166.408,96l 339.184,0 C 509.128,96, 512,93.128, 512,89.592L 512,6.408 z" data-tags="lSt-16" />
<glyph unicode="&#xe03f;" d="M 448,288l-32,0 L 416,320 c0,88.216-71.784,160-160,160S 96,408.216, 96,320l0-32 L 64,288 C 46.408,288, 32,273.592, 32,256l0-256 c0-17.592, 14.408-32, 32-32l 384,0 
	c 17.592,0, 32,14.408, 32,32L 480,256 C 480,273.592, 465.592,288, 448,288z M 288,142.344L 288,80 C 288,71.16, 274.984,64, 266.144,64
	L 245.184,64 C 236.344,64, 224,71.16, 224,80l0,62.72 c0,9.032-21.856,25.096-21.856,43.528
	c0,28.312, 24.248,51.28, 52.56,51.28c 28.328,0, 54.856-22.968, 54.856-51.28
	C 309.56,167.528, 288,151.312, 288,142.344z M 160,288L 160,320 c0,52.936, 43.064,96, 96,96s 96-43.064, 96-96l0-32 L 160,288 z" data-tags="lOk-16" />
<glyph unicode="&#xe040;" d="M 134.032-13.064c-31.704,0-61.328,13.408-82.768,34.872
	c-41.488,41.472-53.080,113.936, 5.096,172.096c 34.112,34.064, 170.656,170.656, 238.816,238.784
	c 24.216,24.184, 54.984,33.528, 84.472,25.624c 28.952-7.72, 52.704-31.472, 60.472-60.408
	c 7.856-29.504-1.504-60.28-25.672-84.504L 186.112,85.064
	c-13.048-13.032-27.768-20.752-42.576-22.312c-14.64-1.528-28.64,3.184-38.456,12.968
	c-17.784,17.72-20.296,51.16, 9.232,80.72l 160.376,160.408
	c 6.592,6.56, 17.296,6.56, 23.856,0c 6.592-6.56, 6.592-17.28,0-23.872l-160.376-160.408
	c-13.872-13.84-15.16-27.128-9.232-33.032c 2.576-2.56, 6.512-3.752, 11.016-3.248
	c 6.968,0.752, 14.856,5.248, 22.28,12.592l 228.344,228.376
	c 15.656,15.656, 21.656,34.096, 16.888,51.872c-4.704,17.504-19.048,31.872-36.576,36.592
	C 353.096,430.496, 334.672,424.44, 319,408.784C 250.872,340.656, 114.312,204.096, 80.216,170.064
	c-44.456-44.504-33.816-95.656-5.112-124.408c 28.72-28.688, 79.904-39.344, 124.408,5.096
	l 238.8,238.784c 6.544,6.592, 17.296,6.592, 23.84,0c 6.592-6.56, 6.592-17.28,0-23.84
	l-238.784-238.784C 195.216-1.248, 163.752-13.064, 134.032-13.064z" data-tags="lInK-aLt-16" />
<glyph unicode="&#xe041;" d="M 460.096,406.968l-1.608,1.56c-37.936,37.936-99.968,37.936-137.872,0L 232.784,320.72
	c-37.92-37.936-37.92-99.936,0-137.872l 1.608-1.624
	c 3.16-3.128, 6.512-6, 9.968-8.624l 32.16,32.184
	C 272.768,206.968, 269.2,209.592, 266,212.84L 264.36,214.472
	c-20.576,20.56-20.576,54.064,0,74.688l 87.856,87.816c 20.576,20.56, 54.080,20.56, 74.656,0
	l 1.64-1.624c 20.56-20.56, 20.56-54.064,0-74.688l-39.752-39.752
	c 6.904-17, 10.168-35.184, 9.872-53.312l 61.456,61.504
	C 498,306.968, 498,369.032, 460.096,406.968z M 330.28,280.344
	c-3.16,3.184-6.512,6-9.968,8.624L 288.144,256.84
	C 291.888,254.656, 295.456,251.968, 298.672,248.784l 1.624-1.624
	c 20.592-20.624, 20.592-54.064,0-74.688l-87.84-87.816c-20.576-20.624-54.080-20.624-74.656,0
	l-1.64,1.56c-20.576,20.624-20.576,54.128,0,74.688l 39.752,39.752
	C 169,217.72, 165.736,235.84, 166.032,253.968L 104.576,192.528
	c-37.92-37.936-37.92-99.936,0-137.872l 1.608-1.624c 37.92-37.872, 99.952-37.872, 137.872,0
	l 87.832,87.872c 37.92,37.872, 37.92,99.936,0,137.816L 330.28,280.344z" data-tags="lInK-16" />
<glyph unicode="&#xe042;" d="M 378.144,304.16C 374.504,313.904, 476,404.592, 416.784,478.032
	c-13.856,17.184-60.832-82.248-127.56-127.248c-36.8-24.816-122.504-77.688-122.504-106.872
	l0-189.128 c0-35.184, 135.84-72.376, 239.096-72.376c 37.856,0, 92.64,237.064, 92.64,274.752
	C 498.456,294.968, 381.8,294.28, 378.144,304.16z M 139.080,301.472
	c-18.168,0-82.936-11-82.936-86.248l0-134.064 c0-75.248, 64.768-83.504, 82.936-83.504
	c 18.16,0-27.656,15.816-27.656,62.44L 111.424,236.28 C 111.424,285.16, 157.232,301.472, 139.080,301.472z" data-tags="lIkE-uP-16" />
<glyph unicode="&#xe043;" d="M 180.624,154.784c 3.576-9.752-97.048-99.624-38.328-172.44
	c 13.752-17.064, 60.344,81.56, 126.504,126.248c 36.488,24.56, 121.44,77, 121.44,105.936l0,187.504 
	c0,34.872-134.688,71.752-237.064,71.752c-37.512,0-91.872-235.064-91.872-272.376
	C 61.296,163.904, 177,164.592, 180.624,154.784z M 417.64,157.408
	c 18.032,0, 82.232,10.936, 82.232,85.56L 499.872,375.84 c0,74.624-64.2,82.872-82.232,82.872
	c-18,0, 27.408-15.752, 27.408-61.936l0-174.688 C 445.048,173.656, 399.64,157.408, 417.64,157.408z" data-tags="lIkE-dW-16" />
<glyph unicode="&#xe044;" d="M 256,472c-136.44,0-247.064-110.624-247.064-247.096S 119.56-22.184, 256-22.184
	s 247.064,110.624, 247.064,247.096S 392.44,472, 256,472z M 288,32L 224,32 L 224,288 l 64,0 L 288,32 z M 288,320L 224,320 L 224,384 l 64,0 L 288,320 z" data-tags="iNf-16" />
<glyph unicode="&#xe045;" d="M 262.184,113.704L 215.112,123.512c-17.376,3.216-28.84,19.936-25.608,37.312
			c 0.816,4.44, 2.624,8.608, 5,12.144l 71.032,104.456L 228.856,299.592l-4.128,2.504
			c-12,7.248-16.128,22.608-9.736,34.856l 25.56,48.768C 223.504,413.376, 189.904,448, 128,448
			C 57.312,448,0,390.688,0,320c0-164.36, 171.408-196.688, 226.856-283.528L 262.184,113.704zM 384,448c-44.544,0-74.44-17.968-94.096-38.344l-10.064-66.112l 47.672-28.816
			c 15.128-9.16, 19.984-28.832, 10.832-43.952l-0.92-1.44L 274.952,177.472l 20.128-3.752
			l 3-0.544c 15.888-2.952, 26.36-18.216, 23.408-34.112
			c-0.264-1.424-0.688-2.968-1.144-4.296l-34.376-98.296C 353.328,112.856, 512,167.592, 512,320
			C 512,390.688, 454.688,448, 384,448z" data-tags="hRt-bR-16" />
<glyph unicode="&#xe046;" d="M 256,475.56C 117.080,475.56, 4.456,362.904, 4.456,224c0-138.936, 112.624-251.56, 251.544-251.56
		S 507.544,85.064, 507.544,224C 507.544,362.904, 394.92,475.56, 256,475.56z M 349.968,179.28
		c-39.408-49.216-93.528-81.064-93.528-81.064s-51.080,31.84-90.472,81.064
		C 117.904,239.376, 134.064,314.472, 198,314.472c 48.048,0, 58.44-45.72, 58.44-45.72
		s 13.408,45.72, 61.472,45.72C 381.832,314.472, 397.984,239.376, 349.968,179.28z" data-tags="hRt-aLt-16" />
<glyph unicode="&#xe047;" d="M 384,448C 281,448, 256,352, 256,352S 231,448, 128,448C 57.312,448,0,390.688,0,320c0-193.344, 231.144-259.080, 256-352l0,0l0,0l0,0
		c 19.504,95, 256,158.704, 256,352C 512,390.688, 454.688,448, 384,448z" data-tags="hRt-16" />
<glyph unicode="&#xe048;" d="M 256,464C 123.656,464, 16,356.344, 16,224s 107.656-240, 240-240s 240,107.656, 240,240S 388.344,464, 256,464z M 112,224
		c0,79.408, 64.592,144, 144,144l0-288 C 176.592,80, 112,144.592, 112,224z" data-tags="hLf-cRl-16" />
<glyph unicode="&#xe049;" d="M 448,288L 448,352L 384,352L 384,288L 320,288L 320,224L 384,224L 384,160L 448,160L 448,224L 512,224L 512,288 		zM 279.312,190.344C 261.872,202.688, 246,220.816, 245.72,226.376
			c0,10.144, 0.904,14.984, 23.656,32.688C 298.784,282.080, 304,304.408, 304,341.496
			c0,31.504-31,76-57.504,87L 320,416l 32,32L 352,480 L 160,480 l0,0C 96.16,476.936, 42.504,427, 50.968,341.312
			C 57.44,275.72, 117.44,225.576, 185.688,224C 184.344,218.784, 195.624,192, 200.904,192
			c-23.784,0-26,0-26.656,0c-65.032,0-123.752-36.264-146.064-83.768
			c-5.816-12.36-8.784-27.016-8.784-39.36c0-11.968, 3.096-24.608, 9.128-35.456
			c 14.032-25.064, 44.128-45.048, 84.784-55.312c 21-5.312, 43.528-8.296, 66.968-8.296
			c 21.032,0, 41.096,2.608, 59.656,7.968c 57.84,16.8, 95.216,59.28, 95.216,108.44
			C 335.16,133.392, 320,161.544, 279.312,190.344z M 195.592,256L 195.064,256 
			C 163.472,256, 119.624,303.328, 114,346.496C 110.816,370.624, 114.504,392.28, 126.504,406
			C 134.28,414.84, 152.784,420.28, 170,419c 33.504-2.504, 65.904-37.28, 71.592-80.504
			c 3.184-24.184-4.128-54.248-16.312-68.144C 217.504,261.488, 207.472,256, 195.592,256z
			 M 274.688,81.032C 275.504,44, 241.84,16, 179,16c-47.656,0-88.504,31.184-88.504,68.504
			c0,75.504, 125.752,85.312, 159,56.504C 272,121.496, 274.592,85.080, 274.688,81.032z" data-tags="gOo-pLs-16" />
<glyph unicode="&#xe04a;" d="M 256,480C 114.84,480,0,365.16,0,224s 114.84-256, 256-256s 256,114.84, 256,256S 397.16,480, 256,480z M 64,224
		c0,14.344, 1.704,28.248, 4.704,41.72L 106.672,224c0,0, 58.656-26.656, 67.544-32S 224,192, 224,192L 224,224 L 224,241.784 
		l 6.56,36.784l 17.216,29.656c0,0, 29.112,23.816, 53.984,39.816
		C 317.28,358, 317.424,386.496, 315.328,406.496C 392.232,381.44, 448,309.16, 448,224
		c0-22.472-4.080-43.936-11.2-64L 416,160 l-81.784,0 l-8.872,22.248L 224,192
		c-12.424,0-72.888-44.44-5.312-55.128s 24.872-32, 8.872-69.312
		c-5.856-13.656, 0.408-26.096, 13.984-34.84C 142.424,40.16, 64,123, 64,224z" data-tags="gLb-aLt-16" />
<glyph unicode="&#xe04b;" d="M 256,472.936C 118.752,472.936, 7.064,361.264, 7.064,224S 118.752-24.936, 256-24.936
		S 504.936,86.736, 504.936,224S 393.248,472.936, 256,472.936z M 71.872,207.816l 23.344-10.608L 160,192l 78.592,0 
		L 194.216,233.096l 6.872,21.784c0,0, 18.84,50.184, 51.592,77.064
		C 274.504,349.84, 265.816,386.28, 257.528,408.856C 358.784,408.016, 440.936,325.456, 440.936,224
		c0-17.44-2.592-34.248-7.128-50.248l-74.84-29.048L 348.72,176L 314.16,199.752L 238.592,192
		L 233.504,149.832l 8.936-49.936l-25.592-52.504c0,0, 0.72-1.968, 2-4.576
		C 139.784,59, 79.032,125.84, 71.872,207.816z" data-tags="gLb-16" />
<glyph unicode="&#xe04c;" d="M 55.56,224A92.312,92.312 1620 1 1 240.184,224A92.312,92.312 1620 1 1 55.56,224zM 279.56,224A92.312,92.312 1620 1 1 464.184,224A92.312,92.312 1620 1 1 279.56,224z" data-tags="fLr-16" />
<glyph unicode="&#xe04d;" d="M 256,474.656C 117.576,474.656, 5.344,362.44, 5.344,224c0-138.472, 112.232-250.656, 250.656-250.656
		S 506.656,85.528, 506.656,224C 506.656,362.44, 394.424,474.656, 256,474.656z M 416,130
		c0,0-127.672,0-127.672,62.656C 288.328,255.344, 192,224, 192,224l0-160 L 160,64 L 160,416 l 32,0 l0-32 l 128,0 l0-128 l 32,0 L 352,318 c0,0, 64,0, 64-62.656
		C 416,192.656, 416,130, 416,130z" data-tags="fLg-aLt-16" />
<glyph unicode="&#xe04e;" d="M 365.904,262.952C 285.184,274.080, 286.672,339.096, 246.264,371.488C 210.624,400.064, 128,416, 128,416L 128,432 
			C 128,440.84, 120.84,448, 112,448L 96,448 L 80,448 C 71.16,448, 64,440.84, 64,432l0-416 C 64,7.16, 71.16,0, 80,0L 96,0 l 16,0 
			C 120.84,0, 128,7.16, 128,16L 128,183.656 c0,0, 17.8,81.424, 62.952,8.344
			C 224,138.512, 312.472,146.72, 370.096,160c 32.768,7.544, 108.72,18.376, 108.72,18.376
			S 446.592,251.832, 365.904,262.952z" data-tags="fLg-16" />
<glyph unicode="&#xe04f;" d="M 256,475.968C 116.84,475.968, 4.032,363.16, 4.032,224c0-139.184, 112.816-251.968, 251.968-251.968
		S 507.968,84.816, 507.968,224C 507.968,363.16, 395.16,475.968, 256,475.968z M 334.28,323.904L 296.344,323.904 
		c-3.752,0-7.216-1.408-10.408-4.184C 282.816,316.936, 281.184,314.312, 281.184,311.84l0-35.096 
		l 53.096,0 c-0.592-6.872-1.16-13.56-1.904-20.032l-2.064-17.032
		c-0.872-5.784-1.688-11.064-2.592-16L 280.84,223.688 l0-156.44 L 210.904,67.248 L 210.904,223.688 L 176.816,223.688 L 176.816,276.752 l 34.096,0 
		L 210.904,319.904 c0,1.968, 0.248,6.216, 0.816,12.656c 0.56,6.472, 3.032,13.248, 7.376,20.312
		c 4.376,7.064, 11.44,13.44, 21.184,19.064C 250.032,377.528, 264.064,380.344, 282.504,380.344
		l 51.784,0 L 334.28,323.904 z" data-tags="fB-aLt-16" />
<glyph unicode="&#xe050;" d="M 160,320l0-32 L 96,288 l0-96 l 64,0 l0-224 l 96,0 L 256,192 l 96,0 L 352,288 L 256,288 L 256,320 c0,37.688, 26.312,64, 64,64l 64,0 L 384,480 l-64,0 C 230.28,480, 160,409.72, 160,320z" data-tags="fB-16" />
<glyph unicode="&#xe051;" d="M 464,416l-416,0 C 21.528,416,0,394.472,0,368l0-320 C0,21.528, 21.528,0, 48,0l 416,0 c 26.472,0, 48,21.528, 48,48l0,320 
		C 512,394.472, 490.472,416, 464,416z M 64,64L 64,254.080 c 55.544-48.512, 133.624-92.504, 177.184-115.264
		l 14.8-7.736l 14.816,7.856C 314.36,161.656, 392.44,210.856, 448,260.424L 448,64 L 64,64 z M 256.016,203.544
		C 154.656,258.488, 64.936,327.36, 64,352l 384,0 C 447.032,320, 357.328,258.392, 256.016,203.544z" data-tags="eNv-aLt-16" />
<glyph unicode="&#xe052;" d="M 256,205.032c 95.784,50.312, 193.096,113.28, 253,165.376C 501.064,396.72, 476.904,416, 448,416L 64,416 
			C 35.096,416, 10.936,396.72, 3,370.408C 62.904,318.312, 160.216,255.344, 256,205.032zM 274.128,124.36C 268.44,121.456, 262.216,120, 256,120s-12.44,1.456-18.128,4.36
			C 190.752,148.344, 86.528,204.344,0,270.144L0,64 c0-35.344, 28.656-64, 64-64l 384,0 c 35.344,0, 64,28.656, 64,64L 512,270.144 
			C 425.472,204.344, 321.248,148.344, 274.128,124.36z" data-tags="eNv-16" />
<glyph unicode="&#xe053;" d="M 416,192l0-128 L 96,64 L 96,384 l 128,0 l 96,96L 32,480 C 14.312,480,0,465.672,0,448.016l0-448.032 C0-17.672, 14.312-32, 32-32l 448,0 
		c 17.688,0, 32,14.328, 32,31.984L 512,286.544 L 416,192zM 449.12,349.248L 281.376,181.472L 213.504,249.344L 381.248,417.12zM 168.248,204.128l-17.592-52.688C 147.56,142.128, 150,131.84, 156.936,124.904
		c 6.936-6.92, 17.184-9.344, 26.504-6.232l 52.688,17.56l 22.624,22.624l-67.872,67.888
		L 168.248,204.128zM 403.872,439.768l 67.872-67.888l 22.656,22.64c 6,6, 9.376,14.144, 9.376,22.624
		s-3.376,16.624-9.376,22.624l-22.656,22.64c-12.504,12.488-32.752,12.488-45.248,0
		L 403.872,439.768z" data-tags="eDt-16" />
<glyph unicode="&#xe054;" d="M 439.904,400.344c 6.376,12.784, 0.904,18.528-12.16,12.816L 60.472,252.472
	c-13.032-5.72-12.528-13.592, 1.16-17.504l 131.656-37.624
	c 13.688-3.904, 26.56-18.656, 28.592-32.784l 18.592-130.128
	c 2-14.16, 8.904-15.248, 15.248-2.504L 439.904,400.344z" data-tags="dRt-pT-16" />
<glyph unicode="&#xe055;" d="M 512,480L 288,480 l 76.28-76.264L 259.064,306.832C 216.44,267.544, 192,211.8, 192,153.84L 192-32 l 96,0 l0,185.84 
			c0,31.2, 13.16,61.232, 36.128,82.376l 108.096,99.544L 512,256L 512,480 zM 66.344,445.672L 0.624,375.048l 153.904-139.016
			c 9.216,28.736, 29.688,56.816, 53.064,80.656L 66.344,445.672z" data-tags="dRt-16" />
<glyph unicode="&#xe056;" d="M 256,464C 123.656,464, 16,356.344, 16,224s 107.656-240, 240-240s 240,107.656, 240,240S 388.344,464, 256,464z M 256,80
			c-79.408,0-144,64.592-144,144S 176.592,368, 256,368s 144-64.592, 144-144S 335.408,80, 256,80zM 192,224A64,64 1620 1 1 320,224A64,64 1620 1 1 192,224z" data-tags="dRp-sL-16" />
<glyph unicode="&#xe057;" d="M 256,461.72C 124.72,461.72, 18.28,355.28, 18.28,224S 124.72-13.72, 256-13.72
		S 493.72,92.72, 493.72,224S 387.28,461.72, 256,461.72z M 256,119.528
		c-57.688,0-104.472,46.784-104.472,104.472S 198.312,328.472, 256,328.472S 360.472,281.688, 360.472,224
		S 313.688,119.528, 256,119.528z" data-tags="dRp-aLt-16" />
<glyph unicode="&#xe058;" d="M 256-16c-132.344,0-240,107.656-240,240S 123.656,464, 256,464s 240-107.656, 240-240S 388.344-16, 256-16z M 256,368
			C 176.592,368, 112,303.408, 112,224s 64.592-144, 144-144s 144,64.592, 144,144S 335.408,368, 256,368z" data-tags="dRp-16" />
<glyph unicode="&#xe059;" d="M 424.16,278.128C 421.672,284.096, 415.84,288, 409.376,288L 320,288 L 320,448 c0,17.688-14.328,32-32,32L 224,480 
		C 206.328,480, 192,465.688, 192,448l0-160 L 102.624,288 C 96.16,288, 90.328,284.096, 87.84,278.128
		c-2.472-5.968-1.112-12.872, 3.472-17.44l 153.376-153.376
		c 6.248-6.248, 16.376-6.248, 22.624,0l 153.376,153.376
		C 425.264,265.248, 426.624,272.16, 424.16,278.128zM 348.312,124.312L 256,32l-92.312,92.312L 32,124.312 c-17.672,0-32-14.312-32-32L0,0 c0-17.688, 14.328-32, 32-32l 448,0 
		c 17.672,0, 32,14.312, 32,32l0,92.312 c0,17.688-14.328,32-32,32L 348.312,124.312 z M 448,32l-64,0 l0,32 l 64,0 L 448,32 z" data-tags="d-lD-16" />
<glyph unicode="&#xe05a;" d="M 512-16c0-8.84-7.16-16-16-16l-480,0 C 7.16-32,0-24.84,0-16l0,480 C0,472.84, 7.16,480, 16,480l 480,0 
			C 504.84,480, 512,472.84, 512,464L 512-16 z M 96,64l 320,0 L 416,384 L 96,384 L 96,64 zM 160,320L 352,320L 352,256L 160,256zM 160,192L 352,192L 352,128L 160,128z" data-tags="cTn-sQ-16" />
<glyph unicode="&#xe05b;" d="M 167.376,322.16c 33.904,24.816, 62.248,39, 20.248,111.752
	C 145.504,506.624, 103.28,462.28, 70.44,438.248C 32.472,410.44, 44.752,283.28, 147,143.656
	c 102.344-139.528, 219.84-189.504, 257.752-161.752C 437.624,6, 492.656,33, 435.904,95
	c-56.72,61.968-78.72,39.184-112.624,14.344c-23.656-17.312-69,33.504-106.872,85.216
	C 178.592,246.248, 143.784,304.816, 167.376,322.16z" data-tags="cAl-aLt-16" />
<glyph unicode="&#xe05c;" d="M 443.248,21.328c 0.344,0.816, 0.72,1.64, 1.064,2.488
		c 0.816,1.904, 1.624,3.968, 2.44,6.096c 0.472,1.408, 1.096,2.816, 1.504,4.2
		c 5.504,15.56, 9.096,33.312, 8.376,37.504c-2.624,15.504-81.064,64.168-115.376,70.128
		c-15.752,2.736-68.504-29.752-74.376-25.264c-50.032,38.312-98.688,118.968-106.472,158.16
		C 157.312,290.2, 202.28,314.376, 205.064,323.328c 2.816,8.952-6.816,112.032-16.904,129.44
		C 179.688,467.408, 124.376,474.44, 103.376,461.952C 84.688,450.84, 14.44,385.392, 86.064,232.968
		c 5.968-16.296, 21.096-43.016, 50.16-85.28c0,0,0,0,0-0.312
		c 29.032-42.232, 49-66.184, 62.376-77.488c 117.784-123.016, 207.376-85.64, 225.312-74.16
		c 5.44,3.456, 10.376,9.456, 14.528,16.44l 0.032,0.016
		C 439.904,14.144, 441.56,17.488, 443.248,21.328z" data-tags="cAl-16" />
<glyph unicode="&#xe05d;" d="M 16,64A80,80 1620 1 1 176,64A80,80 1620 1 1 16,64zM 32,316l0-96 C 160,220, 252,128, 252,0l 96,0 C 348,192, 224,316, 32,316zM 32,476l0-96 C 256,380, 412,224, 412,0l 96,0 C 508,288, 320,476, 32,476z" data-tags="bLoG-16" />
<glyph unicode="&#xe05e;" d="M 185.472,414c 105.904,5, 195-60.688, 199.128-146.72
	c 4.032-86-78.528-159.84-184.408-164.84c-10.16-0.528-20.216-0.344-30,0.44
	c-39.216-43.064-88.096-52.84-135.56-56.184l-0.472,10.128
	c 25.096,13.84, 46.248,37.72, 45,63.904c-0.16,3.688-0.592,7.216-1.28,10.72
	C 33.16,158, 3.344,200.312, 1.096,249.184C-3.032,335.216, 79.528,409, 185.472,414zM 438.904,73.408c 0.16,3.472, 0.56,6.752, 1.216,10
	c 41.752,24.816, 69.624,64.376, 71.752,110.032c 2.184,46.184-22.44,88.504-62.472,117.128
	c 2.344-10.184, 4.16-20.56, 4.656-31.248c 4.56-97.592-72.688-183.504-181.872-213.656
	c 16.84-5.184, 34.872-8.44, 53.688-9.312c 9.504-0.472, 18.84-0.312, 28.032,0.408
	c 36.624-40.28, 82.248-49.376, 126.592-52.44l 0.44,9.408
	C 457.528,26.656, 437.752,48.968, 438.904,73.408z" data-tags="bBlS-16" />
<glyph unicode="&#xe05f;" d="M 256,436.128c 125.032,0, 226.376-82.344, 226.376-183.904c0-101.592-101.344-183.936-226.376-183.936
	c-12,0-23.784,0.752-35.312,2.216c-48.592-48.624-106.656-57.344-162.752-58.624l0,11.904 
	c 30.28,14.84, 56.56,41.872, 56.56,72.784c0,4.344-0.312,8.56-0.936,12.688
	C 62.376,143, 29.624,194.496, 29.624,252.216C 29.624,353.784, 130.968,436.128, 256,436.128z" data-tags="bBl-16" />
<glyph unicode="&#xe060;" d="M 256,474.768C 117.72,474.768, 5.216,362.28, 5.216,224S 117.72-26.768, 256-26.768
		S 506.784,85.72, 506.784,224S 394.28,474.768, 256,474.768z M 256,385.168
		c 29,0, 55.816-8.296, 79.344-21.752l-218.784-218.752C 103.128,168.184, 94.84,195.016, 94.84,224
		C 94.84,312.872, 167.128,385.168, 256,385.168z M 256,62.832c-27.248,0-52.56,7.44-75.096,19.44
		l 216.816,216.832C 409.72,276.56, 417.16,251.248, 417.16,224
		C 417.16,135.128, 344.872,62.832, 256,62.832z" data-tags="bAn-cRI-16" />
<glyph unicode="&#xe061;" d="M 470.624,214.624L 256,429.248L 41.376,214.624L 86.624,169.376L 224,306.752L 224,64L 288,64L 288,306.752L 425.376,169.376 	z" data-tags="aRw-t-16" />
<glyph unicode="&#xe062;" d="M 246.624,438.624L 201.376,393.376L 338.752,256L 64,256L 64,192L 338.752,192L 201.376,54.624L 246.624,9.376L 461.248,224 	z" data-tags="aRw-r-16" />
<glyph unicode="&#xe063;" d="M 310.624,393.376L 265.376,438.624L 50.752,224L 265.376,9.376L 310.624,54.624L 173.248,192L 448,192L 448,256L 173.248,256 	z" data-tags="aRw-l-16" />
<glyph unicode="&#xe064;" d="M 288,141.248L 288,384L 224,384L 224,141.248L 86.624,278.624L 41.376,233.376L 256,18.752L 470.624,233.376L 425.376,278.624 	z" data-tags="aRw-b-16" />
<glyph unicode="&#xe065;" d="M 255.968-28.424c-139.184,0-252.408,113.232-252.408,252.424s 113.216,252.424, 252.408,252.424
		S 508.376,363.184, 508.376,224S 395.16-28.424, 255.968-28.424z M 255.968,412.424
		C 152.096,412.424, 67.56,327.888, 67.56,224s 84.528-188.424, 188.408-188.424S 444.376,120.112, 444.376,224
		S 359.84,412.424, 255.968,412.424zM 246.592,105.376L 201.344,150.624L 274.72,224L 201.344,297.376L 246.592,342.624L 342.592,246.624L 342.592,201.376 	z" data-tags="aNg-rT-aLt-16" />
<glyph unicode="&#xe066;" d="M 255.968-28.424c-139.184,0-252.408,113.232-252.408,252.424s 113.216,252.424, 252.408,252.424
		S 508.376,363.184, 508.376,224S 395.16-28.424, 255.968-28.424z M 255.968,412.424
		C 152.096,412.424, 67.56,327.888, 67.56,224s 84.528-188.424, 188.408-188.424S 444.376,120.112, 444.376,224
		S 359.84,412.424, 255.968,412.424zM 265.344,105.376L 169.344,201.376L 169.344,246.624L 265.344,342.624L 310.592,297.376L 237.216,224L 310.592,150.624 	z" data-tags="aNg-lT-aLt-16" />
<glyph unicode="&#xe067;" d="M 498.332,256c-4.373,5.604-108.437,136.811-242.46,136.811S 17.771,261.604, 13.397,256
		L 1.294,240.498L 9.856,222.812C 12.814,216.732, 84.167,73.522, 255.872,73.522
		c 168.313,0, 242.645,142.706, 245.732,148.772l 9.081,17.92L 498.332,256z M 255.872,134.77
		c-103.189,0-160.604,65.899-182.706,98.482c 18.581,19.897, 53.895,53.604, 97.522,76.060
		C 165.291,297.436, 162.084,284.373, 162.084,270.478c0-51.79, 41.977-93.81, 93.788-93.81
		s 93.81,42.020, 93.81,93.81c0,13.916-3.207,26.98-8.647,38.855
		c 43.378-22.336, 78.542-55.815, 97.209-75.726C 415.253,200.896, 356.352,134.77, 255.872,134.77z" data-tags="vEw-12" />
<glyph unicode="&#xe068;" d="M 143.893,359.524A112.107,112.107 1620 1 1 368.107,359.524A112.107,112.107 1620 1 1 143.893,359.524zM 341.333,181.333L 170.667,181.333 c-94.251,0-170.667-76.416-170.667-170.667c0-23.559, 19.086-42.667, 42.667-42.667l 426.667,0 c 23.58,0, 42.667,19.108, 42.667,42.667
			C 512,104.917, 435.584,181.333, 341.333,181.333z" data-tags="uSr-12" />
<glyph unicode="&#xe069;" d="M 256,474.041C 118.123,474.041, 5.959,361.877, 5.959,224S 118.123-26.041, 256-26.041
		S 506.041,86.123, 506.041,224S 393.877,474.041, 256,474.041z M 256,46.5
		c-97.877,0-177.5,79.623-177.5,177.5S 158.123,401.5, 256,401.5S 433.5,321.877, 433.5,224
		S 353.877,46.5, 256,46.5zM 267.854,237.248c-3.669,0.875-6.748,3.335-8.42,6.706L 214.564,333.668
		C 211.399,339.982, 203.705,342.542, 197.397,339.399L 170.667,326.044
		C 167.623,324.523, 165.312,321.856, 164.252,318.628C 163.164,315.413, 163.413,311.893, 164.935,308.857
		l 56.377-112.732c 1.664-3.378, 4.75-5.831, 8.42-6.706l 131.563-32
		c 6.876-1.664, 13.788,2.539, 15.46,9.415l 7.083,28.999
		c 0.789,3.292, 0.249,6.77-1.5,9.685C 380.565,208.42, 377.707,210.503, 374.414,211.292
		L 267.854,237.248z" data-tags="tMe-12" />
<glyph unicode="&#xe06a;" d="M 200.54,437.333L 55.46,437.333 C 48.42,437.333, 42.667,431.602, 42.667,424.54l0-145.081 C 42.667,272.398, 48.42,266.667, 55.46,266.667l 145.081,0 
		C 207.58,266.667, 213.333,272.398, 213.333,279.46L 213.333,424.54 C 213.333,431.602, 207.58,437.333, 200.54,437.333zM 456.54,437.333L 311.46,437.333 C 304.42,437.333, 298.667,431.602, 298.667,424.54l0-145.081 C 298.667,272.398, 304.42,266.667, 311.46,266.667l 145.081,0 
		C 463.58,266.667, 469.333,272.398, 469.333,279.46L 469.333,424.54 C 469.333,431.602, 463.58,437.333, 456.54,437.333zM 200.54,181.333L 55.46,181.333 C 48.42,181.333, 42.667,175.602, 42.667,168.54l0-145.081 C 42.667,16.398, 48.42,10.667, 55.46,10.667l 145.081,0 
		C 207.58,10.667, 213.333,16.398, 213.333,23.46L 213.333,168.54 C 213.333,175.602, 207.58,181.333, 200.54,181.333zM 456.54,181.333L 311.46,181.333 C 304.42,181.333, 298.667,175.602, 298.667,168.54l0-145.081 C 298.667,16.398, 304.42,10.667, 311.46,10.667l 145.081,0 
		C 463.58,10.667, 469.333,16.398, 469.333,23.46L 469.333,168.54 C 469.333,175.602, 463.58,181.333, 456.54,181.333z" data-tags="tH-lR-12" />
<glyph unicode="&#xe06b;" d="M0,138.667L 128,138.667L 128,10.667L0,10.667zM 341.333,138.667L 469.333,138.667L 469.333,10.667L 341.333,10.667zM 170.667,138.667L 298.667,138.667L 298.667,10.667L 170.667,10.667zM0,309.333L 128,309.333L 128,181.333L0,181.333zM 341.333,309.333L 469.333,309.333L 469.333,181.333L 341.333,181.333zM 170.667,309.333L 298.667,309.333L 298.667,181.333L 170.667,181.333zM0,480L 128,480L 128,352L0,352zM 341.333,480L 469.333,480L 469.333,352L 341.333,352zM 170.667,480L 298.667,480L 298.667,352L 170.667,352z" data-tags="tH-12" />
<glyph unicode="&#xe06c;" d="M 198.251,480L0,480 l0-176.917 l 280.917-274.041c 16.398-16, 42.539-16.206, 59.164-0.42l 128,121.458
		c 8.377,7.915, 13.17,18.916, 13.291,30.457s-4.416,22.628-12.587,30.791L 198.251,480z
		 M 127.708,291.25c-40,0-72.42,32.42-72.42,72.42s 32.42,72.42, 72.42,72.42
		c 40.021,0, 72.441-32.42, 72.441-72.42S 167.73,291.25, 127.708,291.25z" data-tags="tAg-12" />
<glyph unicode="&#xe06d;" d="M0,480L 469.333,480L 469.333,181.333L0,181.333zM0,138.667L 128,138.667L 128,10.667L0,10.667zM 341.333,138.667L 469.333,138.667L 469.333,10.667L 341.333,10.667zM 170.667,138.667L 298.667,138.667L 298.667,10.667L 170.667,10.667z" data-tags="sLd-12" />
<glyph unicode="&#xe06e;" d="M 313.813,467.271c-2.503,2.247-6.101,2.816-9.166,1.436
		C 301.561,467.356, 299.584,464.313, 299.584,460.935l-0.206-78.521
		C 282.688,379.413, 263.019,375.104, 240.292,366.542c-13.874-4.523-28.274-11.812-43.164-18.773
		C 182.67,339.122, 167.253,331.413, 153.166,319.979C 138.517,309.753, 124.999,297.33, 112.206,284.188
		c-13.17-12.587-23.502-28.167-34.517-42.062C 68.814,226.482, 58.98,211.833, 52.295,196.274
		c-6.080-15.851-13.419-30.521-17.252-45.646C 31.332,135.794, 27.726,121.436, 24.334,107.833
		c-1.707-13.582-3.335-26.46-4.814-38.315c-3.726-23.211-1.5-43.044-2.332-56.313
		c-0.085-13.333-0.128-20.956-0.128-20.956l 3.207-0.498c0,0, 3.044,6.976, 8.377,19.207
		c 6.023,11.876, 11.271,29.81, 23.31,48.668C 57.458,69.042, 63.396,79.211, 69.71,89.998
		c 7.374,9.643, 15.168,19.833, 23.232,30.372c 7.836,10.354, 18.418,18.773, 27.314,28.146
		c 9.436,8.981, 20.836,15.708, 30.521,23.374C 162.29,177.458, 172.124,184.377, 183.481,188.082
		c 10.937,4.252, 21.497,7.815, 32.228,9.586C 225.792,200.604, 236.665,200.398, 245.788,201.707
		c 9.856-0.27, 18.482,0.398, 26.816-0.853c 10.517-0.747, 19.001-2.517, 26.311-4.352
		l-0.206-81.188c0-3.378, 1.977-6.436, 5.063-7.815
		c 3.108-1.372, 6.706-0.789, 9.209,1.479l 192.021,174.080
		c 1.771,1.628, 2.795,3.94, 2.795,6.336c0,2.418-1.038,4.729-2.83,6.336
		L 313.813,467.271z" data-tags="rPl-rT-12" />
<glyph unicode="&#xe06f;" d="M 506.98,69.518c-1.479,11.854-3.108,24.732-4.814,38.315
		c-3.399,13.604-6.997,27.961-10.709,42.795c-3.833,15.125-11.164,29.788-17.252,45.646
		c-6.684,15.559-16.519,30.208-25.394,45.852c-11.022,13.895-21.355,29.483-34.517,42.062
		C 401.5,297.33, 387.982,309.753, 373.333,319.979C 359.253,331.413, 343.836,339.122, 329.372,347.769
		C 314.482,354.731, 300.082,362.020, 286.208,366.542C 263.481,375.104, 243.812,379.413, 227.122,382.414
		l-0.206,78.521c0,3.378-1.998,6.414-5.042,7.772
		c-3.086,1.372-6.67,0.811-9.166-1.436L 21.54,295.73
		C 19.748,294.123, 18.709,291.812, 18.709,289.394c0-2.396, 1.003-4.708, 2.795-6.336l 192-174.080
		c 2.539-2.268, 6.123-2.852, 9.209-1.479s 5.084,4.437, 5.084,7.815l-0.206,81.188
		c 7.31,1.835, 15.794,3.605, 26.311,4.352c 8.334,1.252, 16.96,0.583, 26.816,0.853
		c 9.124-1.316, 20.004-1.102, 30.080-4.039c 10.731-1.771, 21.291-5.333, 32.228-9.586
		c 11.356-3.705, 21.184-10.624, 32.711-16.185C 385.415,164.231, 396.814,157.497, 406.251,148.523
		c 8.896-9.372, 19.477-17.792, 27.314-28.146c 8.064-10.539, 15.851-20.729, 23.232-30.372
		c 6.315-10.795, 12.252-20.956, 17.749-30.372c 12.039-18.852, 17.294-36.793, 23.31-48.668
		c 5.333-12.231, 8.377-19.207, 8.377-19.207l 3.207,0.498c0,0-0.043,7.623-0.128,20.956
		C 508.48,26.482, 510.706,46.315, 506.98,69.518z" data-tags="rPl-lT-12" />
<glyph unicode="&#xe070;" d="M 307.292,224l 179.499,179.499c 3.335,3.335, 3.335,8.747,0,12.082l-39.168,39.211
	c-1.628,1.607-3.79,2.503-6.044,2.503s-4.416-0.896-6.044-2.503L 256,275.271
	L 76.459,454.791C 74.83,456.398, 72.668,457.294, 70.414,457.294S 65.998,456.398, 64.377,454.791
	L 25.209,415.58c-3.335-3.335-3.335-8.747,0-12.082L 204.708,224l-179.499-179.499
	c-3.335-3.335-3.335-8.747,0-12.082l 39.168-39.211
	c 1.628-1.607, 3.79-2.503, 6.044-2.503s 4.416,0.896, 6.044,2.503L 256,172.729
	l 179.541-179.52c 1.628-1.607, 3.79-2.503, 6.044-2.503s 4.416,0.896, 6.044,2.503
	l 39.168,39.211c 3.335,3.335, 3.335,8.747,0,12.082L 307.292,224z" data-tags="rMv-12" />
<glyph unicode="&#xe071;" d="M 456.54,437.333L 55.46,437.333 C 48.42,437.333, 42.667,431.602, 42.667,424.54l0-59.748 C 42.667,357.732, 48.42,352, 55.46,352l 401.081,0 
		C 463.58,352, 469.333,357.732, 469.333,364.793L 469.333,424.54 C 469.333,431.602, 463.58,437.333, 456.54,437.333zM 456.54,266.667L 55.46,266.667 C 48.42,266.667, 42.667,260.935, 42.667,253.874l0-59.748 C 42.667,187.065, 48.42,181.333, 55.46,181.333l 401.081,0 
		C 463.58,181.333, 469.333,187.065, 469.333,194.126L 469.333,253.874 C 469.333,260.935, 463.58,266.667, 456.54,266.667zM 456.54,96L 55.46,96 C 48.42,96, 42.667,90.268, 42.667,83.207l0-59.748 C 42.667,16.398, 48.42,10.667, 55.46,10.667l 401.081,0 
		C 463.58,10.667, 469.333,16.398, 469.333,23.46L 469.333,83.207 C 469.333,90.268, 463.58,96, 456.54,96z" data-tags="rE-oDr-12" />
<glyph unicode="&#xe072;" d="M 503.46,266.667L 298.667,266.667 L 298.667,471.46 C 298.667,476.188, 294.834,480, 290.126,480L 221.874,480 C 217.166,480, 213.333,476.188, 213.333,471.46L 213.333,266.667 L 8.54,266.667 
	C 3.833,266.667,0,262.855,0,258.126l0-68.252 C0,185.145, 3.833,181.333, 8.54,181.333L 213.333,181.333 l0-204.793 
	C 213.333-28.188, 217.166-32, 221.874-32l 68.252,0 C 294.834-32, 298.667-28.188, 298.667-23.46L 298.667,181.333 l 204.793,0 
	C 508.167,181.333, 512,185.145, 512,189.874L 512,258.126 C 512,262.855, 508.167,266.667, 503.46,266.667z" data-tags="pLs-12" />
<glyph unicode="&#xe073;" d="M 384,104.54C 384,99.833, 380.167,96, 375.46,96L 8.54,96 C 3.833,96,0,99.833,0,104.54L0,471.46 
		C0,476.167, 3.833,480, 8.54,480l 366.919,0 C 380.167,480, 384,476.167, 384,471.46L 384,104.54 z M 85.333,224l 213.333,0 L 298.667,394.667 L 85.333,394.667 L 85.333,224 zM 435.207,352C 430.5,352, 426.667,348.167, 426.667,343.46L 426.667,266.667 l0-170.667 l0-34.126 C 426.667,57.166, 422.834,53.333, 418.126,53.333L 136.54,53.333 
	C 131.833,53.333, 128,49.5, 128,44.793l0-68.252 C 128-28.167, 131.833-32, 136.54-32l 366.919,0 
	C 508.167-32, 512-28.167, 512-23.46L 512,343.46 C 512,348.167, 508.167,352, 503.46,352L 435.207,352 z" data-tags="pHt-12" />
<glyph unicode="&#xe074;" d="M 456.54,480L 55.46,480 C 48.398,480, 42.667,474.268, 42.667,467.207l0-401.081 C 42.667,59.065, 48.398,53.333, 55.46,53.333L 128,53.333 
		l 152.149-76.060c 3.961-1.998, 8.668-1.771, 12.459,0.54C 296.377-19.854, 298.667-15.73, 298.667-11.292
		L 298.667,301.419 c0,4.857-2.731,9.294-7.083,11.456L 128,394.667l 256,0 l0-341.333 l 72.54,0 C 463.602,53.333, 469.333,59.065, 469.333,66.126
		L 469.333,467.207 C 469.333,474.268, 463.602,480, 456.54,480z" data-tags="oPn-12" />
<glyph unicode="&#xe075;" d="M 490.375,440.54c-7.751,5.604-18.46,8.562-27.961,8.562L 453.333,448.711L 338.503,412.082
	L 209.835,469.184c-5.753,2.56-12.004,3.854-18.29,3.854l-156.665-44.772
	C 15.957,422.436,0,405.227,0,385.436l0-364.309 c0-15.396, 10.958-29.518, 23.794-37.689
	c 7.211-4.644, 17.209-7.104, 25.792-7.104l 12.416,0.789l 125.084,57.934l 137.92-60.309
	L 335.168-32l 7.211,0 l 129.003,23.708C 493.084-4.708, 512,17.23, 512,39.232L 512,404.309 
	C 512,418.603, 501.916,432.164, 490.375,440.54z M 333.291,337.643L 426.667,366.315l0-135.936 L 327.289,203.897
	L 213.333,258.709L 213.333,388.167 l 103.666-46.791C 322.667,338.916, 327.083,337.643, 333.291,337.643z M 85.333,364.914l 85.333,27.982
	l0-285.668 L 85.333,64.604L 85.333,364.914 z M 342.414,48.149L 213.333,102.876L 213.333,211.584 l 103.289-48.292
	c 4.004-1.877, 8.334-2.816, 12.665-2.816c 2.503,0, 1.792,0.313, 4.21,0.939L 426.667,186.29
	l0-123.563 L 342.414,48.149z" data-tags="mP-vEw-12" />
<glyph unicode="&#xe076;" d="M 235.108,480c-94.251,0-170.667-76.416-170.667-170.667c0-67.399, 42.667-133.291, 90.332-211.378
		C 175.268,64.377, 196.729,28.544, 216.107-10.667c 3.584-7.232, 10.916-11.833, 19.001-11.897
		c 8.043-0.043, 15.417,4.48, 19.086,11.669c 21.17,41.479, 44.124,79.353, 65.628,114.752
		C 366.187,180.21, 405.774,244.999, 405.774,309.333C 405.774,403.584, 329.351,480, 235.108,480z M 235.108,229.916
		c-43.918,0-79.502,35.584-79.502,79.481s 35.584,79.481, 79.502,79.481
		s 79.502-35.584, 79.502-79.481S 279.019,229.916, 235.108,229.916z" data-tags="mP-mKr-12" />
<glyph unicode="&#xe077;" d="M 456.54,266.667L 55.46,266.667 C 48.42,266.667, 42.667,260.935, 42.667,253.874l0-59.748 C 42.667,187.065, 48.42,181.333, 55.46,181.333l 401.081,0 
		C 463.58,181.333, 469.333,187.065, 469.333,194.126L 469.333,253.874 C 469.333,260.935, 463.58,266.667, 456.54,266.667z" data-tags="mNs-12" />
<glyph unicode="&#xe078;" d="M 115.207,437.333L 55.46,437.333 C 48.42,437.333, 42.667,431.602, 42.667,424.54l0-59.748 C 42.667,357.732, 48.42,352, 55.46,352l 59.748,0 
		C 122.247,352, 128,357.732, 128,364.793L 128,424.54 C 128,431.602, 122.247,437.333, 115.207,437.333zM 115.207,266.667L 55.46,266.667 C 48.42,266.667, 42.667,260.935, 42.667,253.874l0-59.748 C 42.667,187.065, 48.42,181.333, 55.46,181.333l 59.748,0 
		C 122.247,181.333, 128,187.065, 128,194.126L 128,253.874 C 128,260.935, 122.247,266.667, 115.207,266.667zM 115.207,96L 55.46,96 C 48.42,96, 42.667,90.268, 42.667,83.207l0-59.748 C 42.667,16.398, 48.42,10.667, 55.46,10.667l 59.748,0 
		C 122.247,10.667, 128,16.398, 128,23.46L 128,83.207 C 128,90.268, 122.247,96, 115.207,96zM 456.54,437.333L 183.46,437.333 C 176.42,437.333, 170.667,431.602, 170.667,424.54l0-59.748 C 170.667,357.732, 176.42,352, 183.46,352l 273.081,0 
		C 463.58,352, 469.333,357.732, 469.333,364.793L 469.333,424.54 C 469.333,431.602, 463.58,437.333, 456.54,437.333zM 456.54,266.667L 183.46,266.667 C 176.42,266.667, 170.667,260.935, 170.667,253.874l0-59.748 C 170.667,187.065, 176.42,181.333, 183.46,181.333l 273.081,0 
		C 463.58,181.333, 469.333,187.065, 469.333,194.126L 469.333,253.874 C 469.333,260.935, 463.58,266.667, 456.54,266.667zM 456.54,96L 183.46,96 C 176.42,96, 170.667,90.268, 170.667,83.207l0-59.748 C 170.667,16.398, 176.42,10.667, 183.46,10.667l 273.081,0 
		C 463.58,10.667, 469.333,16.398, 469.333,23.46L 469.333,83.207 C 469.333,90.268, 463.58,96, 456.54,96z" data-tags="lSt-12" />
<glyph unicode="&#xe079;" d="M 256,474.041C 118.123,474.041, 5.959,361.877, 5.959,224S 118.123-26.041, 256-26.041
		S 506.041,86.123, 506.041,224S 393.877,474.041, 256,474.041z M 367.211,86.791
		C 371.044,107.001, 368,129.252, 366.251,144.164C 362.503,175.332, 336.334,172.836, 315.833,171.584
		C 295.353,170.375, 268.999,165.333, 262.77,180.331c-6.229,14.919-19.94,28.665-23.666-21.205
		S 278.976,110.5, 301.419,89.33c 11.044-10.418, 14.080-22.336, 14.336-31.751
		C 297.003,50.83, 277.063,46.5, 256,46.5c-97.877,0-177.5,79.623-177.5,177.5
		c0,36.373, 11.065,70.165, 29.916,98.332C 122.212,320.875, 134.976,315.207, 139.399,299.996
		C 150.606,261.333, 154.332,232.668, 192.981,202.752s 47.353-13.71, 43.627,0
		S 206.684,234.958, 221.646,254.372s 41.145-1.792, 61.084,19.413s 41.102,54.834, 24.939,86.002
		c-6.67,12.708-17.749,27.748-30.962,39.623c 55.211-6.542, 102.457-37.916, 130.247-83.25
		C 388.082,316.914, 368.085,312.626, 369.166,289.998c 1.372-28.252, 36.501-71.502, 62.748-81.664
		C 427.541,159.253, 403.413,116.21, 367.211,86.791z" data-tags="gLb-12" />
<glyph unicode="&#xe07a;" d="M 405.333,409.081C 306.062,480, 256,328.164, 128,421.874L 128,471.46 C 128,476.188, 124.167,480, 119.46,480L 93.874,480 
	C 89.166,480, 85.333,476.188, 85.333,471.46l0-494.919 C 85.333-28.188, 89.166-32, 93.874-32l 25.586,0 
	C 124.167-32, 128-28.188, 128-23.46l0,232 c 156.167-48.917, 158.748,101.895, 277.333,38.414
	C 417.124,240.647, 426.667,242.084, 426.667,253.874c0,68.252,0,46.229,0,114.482
	C 426.667,380.146, 416.206,401.316, 405.333,409.081z" data-tags="fLg-12" />
<glyph unicode="&#xe07b;" d="M 499.207,480L 226.126,480 C 219.086,480, 213.333,474.268, 213.333,467.207l0-59.748 C 213.333,400.398, 219.086,394.667, 226.126,394.667l 149.291,0 
		l-200-199.979c-4.999-4.999-4.999-13.084,0-18.084l 33.166-33.188
		c 2.375-2.418, 5.668-3.748, 9.038-3.748c 3.413,0, 6.67,1.337, 9.038,3.748L 426.667,343.396
		l0-149.269 C 426.667,187.065, 432.42,181.333, 439.46,181.333l 59.748,0 C 506.247,181.333, 512,187.065, 512,194.126L 512,467.207 
		C 512,474.268, 506.247,480, 499.207,480z" data-tags="eXtL-lK-12" />
<glyph unicode="&#xe07c;" d="M 261.333,473.33c-2.916,3.669-7.751,3.669-10.667,0l-160-200C 87.751,269.668, 89.166,266.667, 93.874,266.667
	l 324.252,0 C 422.834,266.667, 424.249,269.668, 421.333,273.33L 261.333,473.33zM 250.667-25.337c 2.916-3.669, 7.751-3.669, 10.667,0l 160,200C 424.249,178.332, 422.834,181.333, 418.126,181.333
	L 93.874,181.333 C 89.166,181.333, 87.751,178.332, 90.667,174.663L 250.667-25.337z" data-tags="cRt-tB-12" />
<glyph unicode="&#xe07d;" d="M 335.289,217.956c 3.335,3.335, 3.143,8.562-0.377,11.669L 177.081,367.708
	C 173.561,370.816, 170.667,369.5, 170.667,364.793l0-302.919 c0-4.708, 2.709-5.831, 6.044-2.503L 335.289,217.956z" data-tags="cRt-r-12" />
<glyph unicode="&#xe07e;" d="M 173.042,208.853c-3.335-3.292-3.164-8.519, 0.377-11.584l 159.666-138.126
	C 336.583,56.043, 341.333,57.351, 341.333,62.066L 341.333,364.978 C 341.333,369.685, 336.747,370.816, 333.419,367.481L 173.042,208.853z" data-tags="cRt-l-12" />
<glyph unicode="&#xe07f;" d="M 261.348,349.234c -2.916,3.669, -7.751,3.669, -10.667,0l -160-200C 87.765,145.564, 89.18,142.564, 93.888,142.564
	L 418.14,142.564 C 422.848,142.564, 424.263,145.564, 421.348,149.234L 261.348,349.234z" data-tags="cRt-t-12" />
<glyph unicode="&#xe080;" d="M 490.667,394.667L 384,394.667 L 384,437.333 c0,11.79-9.543,21.333-21.333,21.333l-42.667,0 C 308.21,458.667, 298.667,449.124, 298.667,437.333l0-42.667 L 213.333,394.667 L 213.333,437.333 c0,11.79-9.543,21.333-21.333,21.333
		l-42.667,0 C 137.543,458.667, 128,449.124, 128,437.333l0-42.667 L 21.333,394.667 C 9.543,394.667,0,385.124,0,373.333l0-384 C0-22.457, 9.543-32, 21.333-32l 469.333,0 
		c 11.79,0, 21.333,9.543, 21.333,21.333l0,384 C 512,385.124, 502.457,394.667, 490.667,394.667z M 426.667,53.333L 85.333,53.333 L 85.333,309.333 l 42.667,0 l0-64 C 128,233.543, 137.543,224, 149.333,224l 42.667,0 
		C 203.79,224, 213.333,233.543, 213.333,245.333L 213.333,309.333 l 85.333,0 l0-64 C 298.667,233.543, 308.21,224, 320,224l 42.667,0 C 374.457,224, 384,233.543, 384,245.333L 384,309.333 l 42.667,0 L 426.667,53.333 z" data-tags="cLdR-12" />
<glyph unicode="&#xe081;" d="M 425.188,120.981C 412.459,140.793, 386.041,146.503, 366.229,133.753L 330.354,110.649
		C 292.601,90.46, 237.561,136.519, 207.253,183.602C 171.499,239.104, 157.753,299.854, 191.751,325.874
		l 35.876,23.104C 247.438,361.728, 253.17,388.146, 240.398,407.936L 217.294,443.812
		C 204.544,463.623, 178.126,469.355, 158.336,456.583C 93.561,414.898, 22.606,331.228, 143.893,142.812
		c 110.997-172.352, 219.833-162.916, 291.627-116.686c 19.812,12.75, 25.522,39.168, 12.772,58.98
		L 425.188,120.981z" data-tags="cAl-12" />
<glyph unicode="&#xe082;" d="M 186.084,417.081C 291.292,422.144, 379.748,355.435, 383.836,268.039
	c 4.004-87.374-77.916-162.418-183.125-167.481C 190.67,100.018, 180.622,100.21, 170.958,100.999
	c-38.919-43.748-87.46-53.71-134.585-57.081L 35.876,54.208
	c 24.917,14.044, 45.959,38.336, 44.708,64.939C 80.42,122.873, 80,126.478, 79.289,130.020
	C 34.873,156.999, 5.291,200, 3.044,249.643C-1.003,337.038, 80.96,411.996, 186.084,417.081zM 437.753,71.040c 0.206,3.541, 0.54,6.876, 1.209,10.19
	c 41.5,25.188, 69.127,65.415, 71.253,111.751c 2.169,46.94-22.251,89.934-62.044,118.997
	c 2.332-10.354, 4.124-20.878, 4.665-31.73C 457.372,181.084, 380.665,93.831, 272.206,63.189
	c 16.747-5.248, 34.667-8.583, 53.291-9.436c 9.5-0.498, 18.752-0.356, 27.918,0.398
	c 36.295-40.917, 81.628-50.169, 125.668-53.269l 0.42,9.543
	C 456.249,23.58, 436.587,46.229, 437.753,71.040z" data-tags="bBlS-12" />
<glyph unicode="&#xe083;" d="M 231.438,431.915c 115.143,16.981, 219.584-45.106, 233.351-138.645
	c 13.81-93.497-68.416-177.038-170.105-199.211C 283.726,91.669, 272.668,91.52, 261.852,91.335
	c-38.165-51.356-112.064-79.040-163.52-87.794l-1.628,10.937
	c 25.835,17.792, 51.228,56.711, 50.46,85.625C 147.044,104.149, 145.728,107.94, 144.604,111.644
	c-51.705,24.149-88.832,67.122-96.668,120.292C 34.148,325.44, 116.309,414.997, 231.438,431.915z" data-tags="bBl-12" />
<glyph unicode="&#xe084;" d="M 164.416,38.293L 134.251,68.459L 289.835,224.043L 134.251,379.627L 164.416,409.792L 350.165,224.043 	z" data-tags="aNg-rT-aLt-12" />
<glyph unicode="&#xe085;" d="M 190.336,468.914C 187.961,471.332, 184.711,472.668, 181.291,472.668
		c-3.378,0-6.67-1.337-9.038-3.748l-33.166-33.188c-4.999-4.999-4.999-13.084,0-18.084
		L 332.708,224l-193.628-193.643c-4.999-4.999-4.999-13.084,0-18.084l 33.166-33.188
		c 2.375-2.418, 5.668-3.748, 9.038-3.748c 3.413,0, 6.67,1.337, 9.038,3.748
		l 235.918,235.876C 428.622,217.351, 430.002,220.601, 430.002,224s-1.372,6.649-3.748,9.038
		L 190.336,468.914z" data-tags="aNg-rT-12" />
<glyph unicode="&#xe086;" d="M 304.917,38.251L 119.168,224L 304.917,409.749L 335.083,379.584L 179.499,224L 335.083,68.416 	z" data-tags="aNg-lT-aLt-12" />
<glyph unicode="&#xe087;" d="M 342.919,435.769l-33.166,33.188C 307.378,471.374, 304.085,472.711, 300.708,472.711
		c-3.413,0-6.67-1.337-9.038-3.748L 55.708,233.081C 53.333,230.684, 51.961,227.435, 51.961,224.043
		S 53.333,217.394, 55.708,214.997l 235.961-235.876c 2.375-2.418, 5.625-3.748, 9.038-3.748
		c 3.378,0, 6.67,1.337, 9.038,3.748l 33.166,33.188c 4.999,4.999, 4.999,13.084,0,18.084
		L 149.248,224.043l 193.664,193.643C 347.918,422.684, 347.918,430.77, 342.919,435.769z" data-tags="aNg-lT-12" />
<glyph unicode="&#xe088;" d="M 292.416,38.293L 262.251,68.459L 417.835,224.043L 262.251,379.627L 292.416,409.792L 478.165,224.043 	zM 121.749,38.293L 91.584,68.459L 247.168,224.043L 91.584,379.627L 121.749,409.792L 307.499,224.043 	z" data-tags="aNg-dL-rT-12" />
<glyph unicode="&#xe089;" d="M 262.251,38.251L 76.501,224L 262.251,409.749L 292.416,379.584L 136.832,224L 292.416,68.416 	zM 432.917,38.251L 247.168,224L 432.917,409.749L 463.083,379.584L 307.499,224L 463.083,68.416 	
		z" data-tags="aNg-dL-lT-12" />
<glyph unicode="&#xe08a;" d="M 121.376,134.624l-107.472-107.472c-2.504-2.504-2.504-6.56,0-9.064l 36.184-36.184
		c 2.504-2.504, 6.56-2.504, 9.064,0l 107.472,107.472l 78.44-78.44
		c 1.84-1.84, 4.592-2.376, 7-1.408C 254.44,10.528, 256,12.872, 256,15.44L 256,217.592 
		C 256,221.128, 253.128,224, 249.592,224L 47.44,224 C 44.872,224, 42.528,222.44, 41.528,220.064
		c-0.968-2.408-0.44-5.16, 1.408-7L 121.376,134.624zM 498.096,420.84c 2.504,2.504, 2.504,6.56,0,9.064l-36.184,36.184
		c-2.504,2.504-6.56,2.504-9.064,0l-107.472-107.472L 266.936,437.064
		c-1.84,1.84-4.592,2.376-7,1.408C 257.56,437.472, 256,435.128, 256,432.56l0-202.16 
		C 256,226.872, 258.872,224, 262.408,224l 202.16,0 c 2.56,0, 4.904,1.56, 5.904,3.936
		c 0.968,2.408, 0.44,5.16-1.408,7l-78.44,78.44L 498.096,420.84z" data-tags="rSz-fS-16" />
<glyph unicode="&#xe08b;" d="M 469.064,234.936c 1.84-1.84, 4.592-2.376, 7-1.408
	C 478.44,234.528, 480,236.872, 480,239.44L 480,441.592 C 480,445.128, 477.128,448, 473.592,448L 271.44,448 
	C 268.872,448, 266.528,446.44, 265.528,444.064c-0.968-2.408-0.44-5.16, 1.408-7
	l 78.44-78.44l-224-224L 42.936,213.064c-1.84,1.84-4.592,2.376-7,1.408
	C 33.56,213.472, 32,211.128, 32,208.56l0-202.16 C 32,2.872, 34.872,0, 38.408,0l 202.16,0 
	c 2.56,0, 4.904,1.56, 5.904,3.936c 0.968,2.408, 0.44,5.16-1.408,7
	l-78.44,78.44l 224,224L 469.064,234.936z" data-tags="rSz-fL-16" />
<glyph unicode="&#xe08c;" d="M 416,416l-32,0 L 384,473.592 C 384,477.128, 381.144,480, 377.592,480l-51.184,0 C 322.856,480, 320,477.128, 320,473.592L 320,416 L 192,416 
		L 192,473.592 C 192,477.128, 189.144,480, 185.592,480L 134.408,480 C 130.856,480, 128,477.128, 128,473.592L 128,416 L 96,416 L 6.408,416 
		C 2.856,416,0,413.128,0,409.592L0,352 l0-32 l0-345.592 C0-29.128, 2.856-32, 6.408-32l 499.184,0 
		C 509.144-32, 512-29.128, 512-25.592L 512,320 L 512,352 L 512,409.592 C 512,413.128, 509.144,416, 505.592,416L 416,416 z M 448,32L 64,32 L 64,320 l 32,0 l 32,0 l 64,0 l 128,0 l 64,0 l 32,0 l 32,0 
		L 448,32 zM 128,256L 192,256L 192,192L 128,192zM 224,256L 288,256L 288,192L 224,192zM 320,256L 384,256L 384,192L 320,192zM 128,160L 192,160L 192,96L 128,96zM 224,160L 288,160L 288,96L 224,96zM 320,160L 384,160L 384,96L 320,96z" data-tags="cLdR-16" />
<glyph unicode="&#xe08d;" d="M 470.625,231.584L 440.459,201.419L 284.875,357.003L 129.291,201.419L 99.126,231.584L 284.875,417.333 	zM 470.625,60.917L 440.459,30.752L 284.875,186.336L 129.291,30.752L 99.126,60.917L 284.875,246.667 	z" data-tags="aNg-dL-t-12" />
<glyph unicode="&#xe08e;" d="M 99.125,216.502L 129.291,246.667L 284.875,91.083L 440.459,246.667L 470.624,216.502L 284.875,30.753 	zM 99.125,387.169L 129.291,417.334L 284.875,261.75L 440.459,417.334L 470.624,387.169L 284.875,201.419 	z" data-tags="aNg-dL-b-12" />
<glyph unicode="&#xe08f;" d="M 37.756,131.67C 35.338,129.295, 34.002,126.045, 34.002,122.625
		c0-3.378 1.337-6.67 3.748-9.038l 33.188-33.166c 4.999-4.999 13.084-4.999, 18.084,0
		L 282.67,274.042l 193.643-193.628c 4.999-4.999 13.084-4.999, 18.084,0l 33.188,33.166
		c 2.418,2.375, 3.748,5.668, 3.748,9.038c 0,3.413, -1.337,6.67, -3.748,9.038
		l -235.876,235.918C 289.319,369.956, 286.069,371.336, 282.67,371.336s-6.649-1.372-9.038-3.748
		L 37.756,131.67z" data-tags="aNg-t-12" />
<glyph unicode="&#xe090;" d="M 56.457,301.834L 86.623,331.999L 242.207,176.415L 397.791,331.999L 427.956,301.834L 242.207,116.085 	z" data-tags="aNg-b-aLt-12" />
<glyph unicode="&#xe091;" d="M 527.58,316.33C 529.998,318.705, 531.334,321.955, 531.334,325.375
		c 0,3.378 -1.337,6.67 -3.748,9.038l -33.188,33.166c -4.999,4.999 -13.084,4.999, -18.084,0
		L 282.666,173.958l -193.643,193.628c -4.999,4.999 -13.084,4.999, -18.084,0l -33.188-33.166
		c -2.418-2.375, -3.748-5.668, -3.748-9.038c 0-3.413, 1.337-6.67, 3.748-9.038
		l 235.876-235.918C 276.017,78.044, 279.267,76.664, 282.666,76.664s 6.649,1.372 9.038,3.748
		L 527.58,316.33z" data-tags="aNg-b-12" />
<glyph unicode="&#xe092;" d="M 427.957,146.252L 397.791,116.087L 242.207,271.671L 86.623,116.087L 56.458,146.252L 242.207,332.001 	z" data-tags="aNg-t-aLt-12" />
<glyph unicode="&#xe093;" d="M 32,384L 224,384L 224,224L 32,224zM 256,384L 448,384L 448,224L 256,224zM 32,192L 224,192L 224,32L 32,32zM 256,192L 448,192L 448,32L 256,32z" data-tags="tH-lR-aLt-16" />
<glyph unicode="&#xe094;" d="M 256,384L 448,384L 448,320L 256,320zM 256,288L 448,288L 448,224L 256,224zM 256,192L 448,192L 448,128L 256,128zM 256,96L 448,96L 448,32L 256,32zM 32,384L 224,384L 224,224L 32,224zM 32,192L 224,192L 224,32L 32,32z" data-tags="rE-oDr-aLt-16" />
<glyph unicode="&#xe095;" d="M 418.688,200.784c0,0-5.344-85.184-50.592-84.408
	c-45.264,0.752-40.392,46.128-29.736,60.592C 349,191.408, 376.080,227, 368.984,267.624
	c-7.112,40.656-41.264,101.656-51.488,127.032C 307.296,420.096, 295.752,430.72, 300.184,474.064
	c0,0-49.248-37.528-53.688-67.656C 242.048,376.28, 250.032,351.28, 263.8,311.784
	C 277.56,272.344, 253.16,248.496, 223.856,246.904C 194.56,245.344, 178.144,267.496, 181.264,306.064
	C 184.36,344.624, 187.016,347, 187.016,347S 142.184,299.28, 136.872,266.44
	c-5.328-32.816, 8-58.592, 39.504-91.44c 31.512-32.816, 22.64-78.968-4-77
	c-26.624,1.936-61.688,46.504-77.656,87.528c0,0-18.64-36.72-9.768-85.968
	c 8.872-49.28, 49.248-94.184, 101.184-116.872c 51.92-22.688, 149.112-16.44, 193.048,24.592
	c 43.936,41.064, 56.8,74.312, 61.688,108.656C 445.768,150.376, 422.232,200.408, 418.688,200.784z" data-tags="fRe-16" />
<glyph unicode="&#xe096;" d="M 384,480L 128,480 C 57.312,480,0,422.688,0,352l0-256 c0-70.688, 57.312-128, 128-128l 256,0 c 70.688,0, 128,57.312, 128,128L 512,352 
	C 512,422.688, 454.688,480, 384,480z" data-tags="cHk-bLnK-16" />
<glyph unicode="&#xe097;" d="M 384,480L 128,480 C 57.312,480,0,422.688,0,352l0-256 c0-70.688, 57.312-128, 128-128l 256,0 c 70.688,0, 128,57.312, 128,128L 512,352 
	C 512,422.688, 454.688,480, 384,480z M 238.528,112.816l-54.904,1.752L 97.064,201.752l 56.752,56.376
	l 59.936-60.344l 154.872,137.376l 53.064-59.872L 238.528,112.816z" data-tags="cHk-16" />
<glyph unicode="&#xe098;" d="M 469.333,437.333L 42.667,437.333 C 19.108,437.333,0,418.226,0,394.667l0-341.333 c0-23.559, 19.108-42.667, 42.667-42.667l 426.667,0 c 23.559,0, 42.667,19.108, 42.667,42.667L 512,394.667 
	C 512,418.226, 492.892,437.333, 469.333,437.333z M 323.584,212.167l-92.501-61.668C 221.326,143.993, 213.333,148.274, 213.333,160L 213.333,288 
	c0,11.726, 7.993,16.007, 17.749,9.5l 92.501-61.668
	C 333.34,229.326, 333.34,218.674, 323.584,212.167z" data-tags="vDeO-aLt-24" />
<glyph unicode="&#xe099;" d="M 256,480C 114.617,480,0,365.383,0,224s 114.617-256, 256-256s 256,114.617, 256,256S 397.383,480, 256,480z M 281.771,77.81
	c-1.948-4.231-4.636-7.886-8.085-10.965c-3.449-3.093-7.481-5.511-12.075-7.253
	c-4.601-1.749-9.564-2.624-14.876-2.624c-5.461,0-10.489,0.875-15.097,2.624
	c-4.594,1.742-8.583,4.153-11.961,7.253c-3.378,3.086-6.030,6.741-7.979,10.965
	c-1.934,4.231-2.908,8.761-2.908,13.596s 0.967,9.323, 2.908,13.49
	c 1.948,4.153, 4.601,7.78, 7.979,10.873c 3.378,3.086, 7.367,5.532, 11.961,7.346
	c 4.601,1.813, 9.636,2.716, 15.097,2.716c 5.312,0, 10.268-0.903, 14.876-2.716
	c 4.594-1.813, 8.626-4.26, 12.075-7.346c 3.449-3.093, 6.137-6.72, 8.085-10.873
	c 1.934-4.167, 2.908-8.654, 2.908-13.49S 283.705,82.041, 281.771,77.81z M 340.075,258.517
	c-3.008-7.388-6.862-13.824-11.534-19.321c-4.665-5.511-9.771-10.24-15.303-14.201
	s-10.78-7.687-15.737-11.179s-9.273-6.919-12.928-10.268
	c-3.669-3.356-5.924-9.159-6.791-13.326L 271.737,160l-45.696,0 l-4.743,34.46
	c-0.149,0.811-0.249,2.638-0.32,3.449c-0.071,0.804-0.107,2.112-0.107,2.93
	c0,5.909, 1.508,11.321, 4.523,15.751c 3.022,4.43, 6.82,8.626, 11.428,12.324
	c 4.594,3.691, 9.55,7.303, 14.876,10.731c 5.312,3.428, 10.268,7.147, 14.876,11.108
	c 4.594,3.961, 8.405,8.398, 11.428,13.305c 3.008,4.892, 4.523,10.709, 4.523,17.429
	c0,8.050-2.83,14.471-8.512,19.243c-5.675,4.757-13.483,7.147-23.396,7.147
	c-7.616,0-13.966-0.74-19.072-2.219c-5.106-1.472-9.479-3.115-13.148-4.928
	s-6.862-3.456-9.593-4.935S 203.335,293.561, 200.612,293.561
	c-6.187,0-10.78,2.482-13.803,7.445L 169.138,326.372
	c 5.326,4.167, 11.108,8.064, 17.351,11.691C 192.74,341.675, 199.46,344.868, 206.649,347.627
	c 7.189,2.752, 14.905,4.892, 23.175,6.436c 8.263,1.543, 17.195,2.325, 26.83,2.325
	c 13.497,0, 25.685-1.685, 36.53-5.042c 10.852-3.356, 20.082-8.156, 27.705-14.393
	c 7.616-6.236, 13.468-13.76, 17.564-22.549s 6.144-18.553, 6.144-29.291
	C 344.604,274.759, 343.097,265.906, 340.075,258.517z" data-tags="qAn-24" />
<glyph unicode="&#xe09a;" d="M 469.333,458.667L 128,458.667 C 104.441,458.667, 85.333,439.58, 85.333,416.021L 85.333,373.333 L 42.667,373.333 C 19.108,373.333,0,354.226,0,330.667l0-320 c0-23.559, 19.108-42.667, 42.667-42.667l 341.333,0 
		c 23.559,0, 42.667,19.108, 42.667,42.667l0,42.667 l 42.667,0 c 23.559,0, 42.667,19.122, 42.667,42.688l0,320 C 512,439.58, 492.892,458.667, 469.333,458.667z M 384,224
		c0,0-21.333-85.333-84.544-101.596C 246.336,108.743, 192,138.667, 128,117.333c-45.248-15.083-85.333-85.333-85.333-85.333L 42.667,330.667 l 341.333,0 L 384,224 z M 469.333,96l-42.667,0 L 426.667,330.667 
		c0,23.559-19.108,42.667-42.667,42.667L 128,373.333 L 128,416 l 341.333,0 L 469.333,96 zM 85.333,234.667A53.333,53.333 900 1 1 192,234.667A53.333,53.333 900 1 1 85.333,234.667z" data-tags="pHoT-24" />
<glyph unicode="&#xe09b;" d="M 490.667,437.333L 21.333,437.333 C 9.543,437.333,0,427.783,0,416l0-405.333 c0-11.783, 9.543-21.333, 21.333-21.333l 469.333,0 c 11.79,0, 21.333,9.55, 21.333,21.333L 512,416 
	C 512,427.783, 502.457,437.333, 490.667,437.333z M 42.667,309.333L 42.667,394.667 l 40.811,0 l 40.292-85.333L 42.667,309.333 z M 127.46,394.667l 84.018,0 l 40.292-85.333L 167.751,309.333 L 127.46,394.667z
	 M 323.584,148.167l-92.501-61.668C 221.326,79.993, 213.333,84.274, 213.333,96l0,128 
	c0,11.726, 7.993,16.007, 17.749,9.5l 92.501-61.668
	C 333.34,165.326, 333.34,154.674, 323.584,148.167z M 295.751,309.333l-40.292,85.333l 84.018,0 l 40.292-85.333L 295.751,309.333 
	z M 469.333,309.333l-45.582,0 l-40.292,85.333L 469.333,394.667 L 469.333,309.333 z" data-tags="mOv-24" />
<glyph unicode="&#xe09c;" d="M 213.333,266.667c-41.166,0-74.667-33.5-74.667-74.667S 172.167,117.333, 213.333,117.333s 74.667,33.5, 74.667,74.667S 254.5,266.667, 213.333,266.667zM 426.667,394.667l-128,0 c0,47.125-38.208,85.333-85.333,85.333L 192,480 C 144.875,480, 106.667,441.792, 106.667,394.667L 85.333,394.667 C 38.208,394.667,0,356.459,0,309.333l0-234.667 
	c0-47.125, 38.208-85.333, 85.333-85.333l 341.333,0 c 47.125,0, 85.333,38.208, 85.333,85.333L 512,309.333 C 512,356.459, 473.792,394.667, 426.667,394.667z M 213.333,53.333
	c-76.459,0-138.667,62.208-138.667,138.667S 136.875,330.667, 213.333,330.667s 138.667-62.208, 138.667-138.667S 289.792,53.333, 213.333,53.333z M 448,296.668
	C 448,280.092, 434.581,266.667, 417.998,266.667l-25.337,0 C 376.085,266.667, 362.667,280.092, 362.667,296.668l0,4.004 
	C 362.667,317.241, 376.085,330.667, 392.668,330.667l 25.337,0 C 434.581,330.667, 448,317.241, 448,300.665L 448,296.668 z" data-tags="cMeR-24" />
<glyph unicode="&#xe09d;" d="M 113.792,47.196c-3.499,4.821-6.002,9.052-4.836,14.905l 14.414,64.043
		c 1.166,5.924-0.206,12.060-3.812,16.917c-3.605,4.843-9.102,7.929-15.104,8.498
		l-63.374,5.988c-6.372,0.604-12.708-1.721-17.209-6.3
		c-4.501-4.572-6.706-10.93-6.002-17.316c 3.477-31.268, 7.061-28.060, 22.834-79.467
		c 12.373-40.299, 19.705-47.147, 84.21-61.092c 9.5-2.055, 19.122,3.029, 23.289,11.812
		S 113.792,47.196, 113.792,47.196zM 320,309.333L 320,459.051 c0,4.011-2.247,7.687-5.831,9.508
		c-3.584,1.813-7.872,1.479-11.108-0.889l-188.999-137.451L 37.042,314.268
		C 15.836,311.445,0,293.362,0,271.979l0-31.957 c0-21.383, 15.836-39.467, 37.042-42.29l 82.212-16.654
		l 184.356-117.312c 3.292-2.084, 7.438-2.219, 10.852-0.341S 320,68.878, 320,72.761L 320,202.667 
		c 23.559,0, 42.667,19.108, 42.667,42.667l0,21.333 C 362.667,290.226, 343.559,309.333, 320,309.333zM 397.788,165.362l-30.165,30.165c 18.795,18.802, 29.148,43.79, 29.148,70.372
		s-10.354,51.57-29.148,70.372l 30.165,30.165c 26.852-26.852, 41.643-62.564, 41.643-100.544
		S 424.647,192.22, 397.788,165.362zM 445.497,96.32L 415.332,126.492c 74.084,74.091, 69.561,199.168-10.084,278.812
		l 30.165,30.165C 531.705,339.186, 536.228,187.044, 445.497,96.32z" data-tags="cLfD-24" />
<glyph unicode="&#xe09e;" d="M 322.958,301.938C 323.207,305.365, 324.004,308.636, 324.004,312.128
		c0,87.033-70.564,157.596-157.604,157.596c-87.061,0-157.604-70.564-157.604-157.596
		c0-5.355, 1.060-10.418, 1.586-15.637c 0.085-3.243, 0.498-7.95, 1.458-14.5
		c 0.128-0.604, 0.085-1.237, 0.206-1.835c 4.039-25.102, 16.789-72.32, 56.768-144.185
		c 50.773-91.243, 97.586-165.98, 97.586-165.98s 47.915,74.738, 98.688,165.98
		c 63.168,113.564, 58.503,165.966, 58.503,165.966L 322.958,301.938 z M 166.393,239.289
		c-38.336,0-69.397,31.083-69.397,69.419c0,38.322, 31.061,69.397, 69.397,69.397
		c 38.315,0, 69.397-31.076, 69.397-69.397C 235.79,270.372, 204.708,239.289, 166.393,239.289zM 485.646,199.396L 414.123,287.666l-53.148,0.249C 361.977,280.96, 362.667,273.899, 362.667,266.667
	c0-36.124-27.356-94.898-57.23-148.416C 318.208,120.356, 340.956,127.851, 347.25,138.667l0,0
	C 354.645,125.959, 368.249,117.333, 384,117.333c 7.815,0, 15.040,2.247, 21.333,5.916L 405.333,10.667 l-42.667,0 l0,64 l-64,0 l0-64 l-42.667,0 l0,0
	c-12.373-19.186-21.852-28.729-25.124-33.458l-4.978-7.232C 228.587-31.232, 231.524-32, 234.667-32l 192,0 
	c 11.79,0, 21.333,9.543, 21.333,21.333l0,133.916 C 454.293,119.58, 461.518,117.333, 469.333,117.333c 23.559,0, 42.667,19.108, 42.667,42.667
	C 512,177.771, 501.106,193.003, 485.646,199.396z" data-tags="bSn--24" />
<glyph unicode="&#xe09f;" d="M 489.102,218.93c-21.959-0.782-40.107-3.243-45.874-8.875l-3.399-3.989
		c-24.811-29.248-66.375-78.222-123.228-81.116c-1.771-0.085-3.52-0.135-5.269-0.135
		c-32.021,0-63.73,14.876-94.315,44.274c-2.688,2.574-5.376,5.291-8.164,8.107
		C 191.211,194.987, 172.978,213.404, 134.002,217.074c-33.372,3.143-79.502-0.939-122.56-6.855
		C 4.395,202.603,0,192.512,0,181.333l0-21.333 c0-23.559, 19.108-42.667, 42.667-42.667l 426.667,0 c 23.559,0, 42.667,19.108, 42.667,42.667l0,21.333 
		C 512,197.717, 502.67,211.783, 489.102,218.93zM 246.564,199.851c 23.46-22.528, 46.002-33.372, 67.876-32.292
		C 348.274,169.294, 377.664,199.388, 399.040,224l-177.479,0 
		c 6.606-5.753, 12.395-11.52, 17.607-16.782C 241.685,204.665, 244.146,202.19, 246.564,199.851zM 21.333,96c-11.79,0-21.333-9.55-21.333-21.333l0-21.333 c0-35.342, 28.644-64, 64-64l 384,0 c 35.356,0, 64,28.658, 64,64l0,21.333 
	c0,11.79-9.543,21.333-21.333,21.333c-34.126,0-103.125,0-161.607,0c-71.644,0-123.627-83.3-206.727-83.3
	C 76.274,12.7, 90.396,96, 56.747,96C 43.691,96, 31.232,96, 21.333,96zM 256.732,462.585c-143.602,0-242.332-60.935-252.352-194.29
	C 3.961,262.727, 5.895,257.33, 9.458,253.084c 44.587,5.959, 92.459,9.906, 128.54,6.471
	C 159.019,257.572, 175.893,252.238, 189.916,245.333l 230.023,0 c 18.332,12.366, 49.522,16.498, 88.292,16.562
	c 0.498,2.105, 1.024,4.21, 0.853,6.393C 499.065,401.643, 400.334,462.585, 256.732,462.585z
	 M 209.813,338.752c-13.959,0-25.294,12.018-25.294,26.83c0,14.82, 11.335,26.844, 25.294,26.844
	s 25.294-12.018, 25.294-26.844C 235.108,350.77, 223.772,338.752, 209.813,338.752z M 301.063,289.031
	c-13.959,0-25.294,12.018-25.294,26.83c0,14.82, 11.335,26.844, 25.294,26.844
	s 25.294-12.018, 25.294-26.844C 326.357,301.049, 315.022,289.031, 301.063,289.031z M 316.48,387.883
	c-10.603,0-19.186,9.124-19.186,20.366c0,11.25, 8.583,20.373, 19.186,20.373
	s 19.186-9.124, 19.186-20.373C 335.666,397.013, 327.083,387.883, 316.48,387.883z M 122.816,348.523
	c-10.603,0-19.186,9.124-19.186,20.366c0,11.25, 8.583,20.373, 19.186,20.373
	S 142.002,380.139, 142.002,368.889C 142.002,357.646, 133.419,348.523, 122.816,348.523z M 401.813,296.085
	c-13.959,0-25.294,12.018-25.294,26.83c0,14.82, 11.335,26.844, 25.294,26.844
	s 25.294-12.018, 25.294-26.844C 427.108,308.103, 415.772,296.085, 401.813,296.085z" data-tags="rTrT-24" />
<glyph unicode="&#xe0a0;" d="M 498.247,307.271l-207.168,165.205c-19.292,13.355-50.873,12.103-70.165-1.252
	l-207.168-163.335C-5.54,294.542-2.126,288, 21.333,288l 64,0 l0-138.020 C 85.333,114.78, 114.126,96, 149.333,96l 109.376,0 l-4.956-106.667
	l 97.586,106.667L 362.667,96 c 35.207,0, 64,18.78, 64,53.98L 426.667,288 l 64,0 C 514.126,288, 517.54,293.916, 498.247,307.271z M 256,235.314
	l0-21.333 l-42.667,0 l0,42.667 l 21.333,0 C 246.457,256.647, 256,247.097, 256,235.314z M 170.667,256.647l 21.333,0 l0-42.667 L 149.333,213.98 l0,21.333 
	C 149.333,247.097, 158.876,256.647, 170.667,256.647z M 149.333,171.314l0,21.333 l 42.667,0 l0-42.667 L 170.667,149.98 C 158.876,149.98, 149.333,159.531, 149.333,171.314z
	 M 234.667,149.98l-21.333,0 l0,42.667 l 42.667,0 l0-21.333 C 256,159.531, 246.457,149.98, 234.667,149.98z" data-tags="rEt-24" />
</font>
</defs>
</svg>
